<?xml version="1.0" standalone="no"?>
<!DOCTYPE svg PUBLIC "-//W3C//DTD SVG 1.1//EN" "http://www.w3.org/Graphics/SVG/1.1/DTD/svg11.dtd" >
<svg xmlns="http://www.w3.org/2000/svg">
<metadata>Generated by IcoMoon</metadata>
<defs>
<font id="icomoon" horiz-adv-x="1024">
<font-face units-per-em="1024" ascent="960" descent="-64" />
<missing-glyph horiz-adv-x="1024" />
<glyph unicode="&#x20;" d="" horiz-adv-x="512" />
<glyph unicode="&#xe600;" d="M613.463 650.916c0-13.731-3.281-26.975-9.964-39.611-7.655-15.431-17.619-23.086-29.769-23.086-6.562 0-18.227 5.468-34.751 16.524-19.806 12.637-32.199 20.049-37.182 22.358 15.431 15.431 23.086 34.387 23.086 56.987 0 32.442-19.806 48.725-59.417 48.725-18.712 0-54.193-13.244-106.561-39.611-46.78-24.301-80.68-44.593-101.579-61.118-16.039-12.637-30.862-27.582-44.593-44.593 1.7-16.524 10.693-42.649 27.218-78.493 15.431-33.050 22.844-60.266 22.358-81.774v-5.832c-7.169-15.917-17.375-23.693-30.62-23.086h-1.458c-13.731 7.169-23.693 15.675-29.769 25.638-14.338 23.086-21.507 78.129-21.507 165.249 0 31.349 11.786 56.744 35.48 75.941 27.582 21.507 71.932 42.527 133.414 63.183s110.328 30.742 146.659 30.742c79.343 0 118.955-36.087 118.955-108.141zM576.282 213.857c0-5.468-4.738-17.862-14.095-37.182-11.058-20.899-23.451-34.994-37.182-42.163-6.562-3.281-19.806-6.198-39.611-8.627s-36.573-7.898-50.426-16.039c-27.582-14.824-42.649-22.358-45.444-22.358-12.151 0-21.75 8.020-28.918 23.937-4.982 12.151-7.412 25.273-7.412 39.611 0 10.45 1.7 23.693 4.982 39.611-1.093 2.795-2.795 4.982-4.982 6.562h-2.431c-26.975-26.975-46.78-40.461-59.417-40.461-16.039 0-25.273 15.917-28.068 47.873 0.486 2.187 1.7 3.889 3.281 4.982 6.562 14.338 26.124 35.48 58.688 63.669 34.751 29.769 57.473 53.706 68.531 71.81-7.776 14.338-21.993 27.825-43.013 40.461-23.693 13.731-39.125 25.273-46.294 34.629 1.093 8.262 5.346 15.309 12.758 21.020 7.412 5.832 15.553 8.627 24.422 8.627 19.806 0 35.844-2.795 47.873-8.262 8.262-4.374 21.507-14.338 39.611-29.769 25.882 31.956 38.76 67.436 38.76 106.561 0 52.248-14.581 78.493-43.742 78.493-17.132 0-36.087-4.738-56.987-14.095-22.6-10.45-37.667-23.451-45.444-38.76-2.795-4.374-6.318-17.375-10.693-38.76-3.281-14.338-10.207-24.787-20.655-31.349-2.187 0-4.131 0.486-5.832 1.7l-4.131 3.281-1.7 5.832c0.486 2.187 1.336 3.889 2.431 4.982 1.093 40.704 13.608 74.241 37.546 100.364s56.014 39.246 96.233 39.246c2.795 0 7.291-0.364 13.608-1.215s10.814-1.215 13.608-1.215c28.675 0 52.004-13.731 70.231-41.313 15.431-23.693 23.086-50.668 23.086-80.924 0-31.349-6.318-61.969-18.955-91.738-7.169-13.731-14.824-33.658-23.086-59.417 14.824-15.431 22.358-29.769 22.358-42.891v-3.281c-20.899 9.964-33.050 14.824-36.33 14.824-11.543 0-19.806-7.169-24.787-21.507 7.169-2.795 17.862-6.318 32.199-10.693 27.582-8.262 47.023-16.282 58.688-23.937 20.535-12.758 30.742-30.013 30.742-52.126zM486.247 798.668c-2.187-6.562-8.020-12.637-17.375-18.227-9.355-5.468-17.862-8.262-25.638-8.262-20.899 0-37.182 8.020-48.725 23.937-9.964 14.338-14.824 32.199-14.824 53.706 0 23.693 6.076 35.48 18.227 35.48 7.655 0 19.806-2.431 36.33-7.412 19.32-6.562 32.806-16.524 40.461-29.769 6.076-10.329 9.964-26.853 11.543-49.453zM503.622 221.39c0 29.161-12.151 48.237-36.33 56.987-9.355-0.607-18.347-7.291-26.853-20.291s-17.74-20.291-27.704-21.871l-7.412 2.431-10.693-7.412c0.486-3.281 0.851-6.926 0.851-10.814 0-7.169-0.971-17.74-2.916-31.835s-2.916-24.666-2.916-31.835c0-14.338 3.524-22.6 10.693-24.787 7.655 1.7 19.562 4.131 35.48 7.412 6.562 0.486 16.768 1.336 30.62 2.431 8.748 9.355 17.253 21.993 25.151 38.031 8.020 16.16 12.029 29.891 12.029 41.556zM981.872 387.367c-16.524-39.125-43.499-74.605-80.924-106.561s-76.307-52.613-116.525-61.969c-26.975-6.562-44.836-9.964-53.706-9.964-24.18 0-53.098 11.543-86.755 34.629-28.675 19.806-52.004 41.556-70.231 65.249-11.058 13.731-16.524 30.62-16.524 50.426 0 20.413 14.216 53.22 42.527 98.663s51.64 68.165 69.745 68.165c8.748 0 15.675-8.505 20.655-25.638 2.187-12.637 4.617-25.273 7.412-38.031-1.7-17.619-20.291-38.031-55.771-61.118s-53.22-43.257-53.22-60.266c0-7.169 4.617-15.189 14.095-23.937 21.993-22.6 64.642-38.76 128.068-48.725 8.262 0 22.358 1.944 42.163 5.832-15.431 7.169-23.086 17.862-23.086 32.199 0 17.619 8.748 30.013 26.367 37.182 23.086 0 34.751-11.907 34.751-35.48 0-4.982-2.187-12.151-6.562-21.507l9.964 4.131c20.899 8.748 55.042 40.461 102.43 95.018 4.982 6.076 7.412 16.282 7.412 30.498 0 13.244-11.907 27.825-35.48 43.742-19.32 12.151-37.667 20.899-55.406 26.367-11.058 1.093-27.218 4.131-48.725 9.113-8.262 2.187-14.338 7.655-18.227 16.524 9.355 12.151 18.712 24.18 28.068 36.33 7.169 7.655 23.086 11.543 47.873 11.543 31.349 0 66.1-12.393 104.131-37.182 1.093 0.486 3.281 0.851 6.562 0.851 2.795 0 5.468-0.851 8.262-2.431l3.281-9.113c0-3.889-0.851-10.207-2.552-18.955-1.579-8.87-2.431-15.431-2.431-19.806 0-27.46 7.412-56.014 22.358-85.784zM681.994 161.001v-5.832c0-8.748-3.402-16.889-10.329-24.301s-14.702-11.665-23.573-12.758c-25.273 11.543-38.031 27.218-38.031 47.023 11.058 15.917 22.358 23.451 33.9 22.236 2.795 1.093 5.468 1.7 8.262 1.7 20.413 0.122 30.377-9.235 29.769-28.068zM962.066 678.134v-4.131c-6.562-5.468-30.984-9.355-73.147-11.543s-68.165-8.262-78.008-18.227v-4.131c0.486-16.524-6.926-35.358-22.358-56.622-15.431-21.142-23.451-37.546-23.937-49.089l-9.964-0.851c1.093 4.374 1.7 9.355 1.7 14.824 0 11.058-2.431 24.544-7.412 40.461-3.889 13.731-7.776 27.218-11.543 40.461-7.655 6.562-14.581 9.964-20.655 9.964-4.374 0-10.814-1.093-19.442-3.281-8.505-2.187-14.702-3.281-18.591-3.281-20.899 0-39.125 16.282-54.557 48.725 35.844 30.862 74.605 52.004 116.525 63.548 35.237 9.964 79.83 14.824 133.779 14.824 25.273 0 46.415-7.412 63.183-22.358 16.768-14.702 24.908-34.508 24.422-59.295zM806.78 420.418c0-7.169-3.402-16.524-10.329-28.068s-13.608-17.375-20.291-17.375c-5.468 0-12.515 3.889-21.020 11.543s-13.974 14.338-16.16 19.806c0 15.431 4.131 25.882 12.393 31.349 6.562 3.889 17.862 5.832 33.9 5.832 5.468 0 10.45-2.431 14.824-7.412s6.683-10.207 6.683-15.675zM960.365 174.246c0-9.355-4.374-19.442-13.244-30.134s-17.862-16.889-27.218-18.591c-7.776 2.187-17.132 8.262-28.068 18.227-11.058 9.964-18.469 18.469-22.358 25.638 5.468 21.507 8.748 33.050 9.964 34.751 4.982 8.262 15.189 12.393 30.62 12.393 33.536-0.122 50.304-14.216 50.304-42.284z" horiz-adv-x="1161" />
<glyph unicode="&#xe601;" d="M959.138 497.969c0-16.898-8.709-29.651-26.229-38.047-21.459-10.678-33.797-19.179-37.218-25.4-15.862 2.8-28.198 9.020-37.218 18.662-8.502 7.879-28.51 36.078-60.129 84.595-44.579 68.838-75.888 113.416-93.925 133.736-45.097 51.94-89.676 77.856-133.736 77.856-21.979 0-46.652-9.435-74.021-28.303s-45.305-27.784-53.702-26.644c-27.058-25.4-41.78-62.099-43.956-109.995-4.561-2.8-10.678-7.568-18.662-14.41l3.421-10.16c-6.22-9.642-15.24-23.948-27.058-43.128-2.8-5.080-10.263-20.838-22.393-47.377s-18.454-41.157-19.076-43.956c-5.702-23.74-12.13-44.061-19.49-60.959-3.94-8.502-10.575-16.898-19.905-25.4s-18.142-12.648-26.644-12.648h-2.592c-12.959-1.659-23.948 7.050-32.968 26.229-7.879 15.758-11.819 30.998-11.819 45.719 0 16.898 7.361 36.078 21.979 57.537 9.020 13.581 28.198 38.359 57.537 74.435 14.099 16.898 30.168 38.36 48.207 64.277 10.678 12.959 26.54 32.968 47.378 60.129 9.020 11.819 21.979 29.651 38.981 53.287 6.22 11.3 16.588 27.68 31.308 49.036 11.819 15.758 25.090 29.34 39.81 40.639 28.198 21.459 64.899 32.138 109.995 32.138 38.36 0 77.547-18.35 117.666-55.050 7.361-7.361 19.076-17.105 35.145-29.235s40.743-29.753 74.021-52.872c28.82-21.979 57.226-51.317 85.425-88.017 33.175-43.541 49.866-79.101 49.866-106.678zM755.216 205.098c-2.281-15.758-11.819-32.76-28.82-50.798-55.258-58.678-125.235-88.017-209.831-88.017-36.7 0-66.557 8.19-89.676 24.569-25.4 18.662-38.047 45.719-38.047 81.278 3.421 7.879 7.672 11.819 12.648 11.819 12.959 0 35.145-5.080 66.453-15.24s63.861-15.24 97.762-15.24c63.136 0 126.272 17.209 189.512 51.629zM501.324 260.977c-5.080-28.82-23.74-48.83-55.878-60.129-15.758 3.94-25.711 13.581-29.651 28.82-7.361 25.918-11.3 39.188-11.819 39.81 1.14 11.3 14.099 16.898 38.877 16.898 30.479 0 49.969-8.502 58.471-25.4zM640.037 346.401c-2.281-2.8-11.819-11.819-28.82-27.058-12.959-11.3-20.32-20.838-21.979-28.82-0.518-1.659-2.281-15.55-5.080-41.468-1.658-18.662-5.391-31.62-10.989-38.981-5.080 3.421-9.642 15.55-13.581 36.388-5.080 24.777-8.709 39.81-10.989 44.89-6.22 10.16-17.521 18.35-33.797 24.569-22.6 7.879-36.388 13.477-41.468 16.898-14.721 10.16-23.43 26.54-26.229 49.141 5.080 6.739 19.49 12.959 43.128 18.557 25.918 6.22 43.128 12.959 51.629 20.32 0.518 1.659 2.8 15.24 6.739 40.639 3.421 18.038 7.568 29.651 12.648 34.73 7.879-3.421 13.788-14.514 17.728-33.382s8.709-28.303 14.41-28.303c4.561 0 10.575 1.244 18.245 3.835 7.568 2.488 13.374 3.835 17.313 3.835-5.080-20.32-7.568-29.34-7.568-27.058 0-3.318 0.518-7.050 1.659-10.989-1.14-2.281-1.451-4.25-0.829-5.909 0.518-1.658 3.421-8.19 8.502-19.49 1.244-7.463 4.25-18.142 9.33-32.346zM642.628 556.337c-5.080-12.441-16.381-22.6-33.797-30.479-8.502 0-21.149-0.415-38.047-1.244s-29.651-1.244-38.047-1.244c-8.502 0-16.381 2.488-23.637 7.568-6.22 3.421-14.721 10.886-25.4 22.393s-16.070 19.905-16.070 24.985c0 9.020 8.709 19.179 26.229 30.479 14.099 9.020 26.954 15.137 38.462 18.245s28.095 4.665 49.451 4.665c13.581 0 23.43-3.421 29.651-10.16 3.94-4.561 10.16-15.344 18.662-32.553 8.293-17.314 12.544-28.198 12.544-32.658zM793.264 289.693c0-13.581-7.050-24.258-21.149-32.138-5.702-2.8-29.651-11.819-71.948-27.058-43.956-15.758-68.838-23.74-74.435-23.74 11.819 11.819 28.51 30.998 49.969 57.537 4.458 8.502 8.709 19.179 12.648 32.138 5.080 17.521 8.709 28.51 10.989 32.968 6.22 15.758 13.788 23.74 22.808 23.74 13.581 0 28.82-7.361 45.719-21.979s25.4-28.407 25.4-41.468z" horiz-adv-x="1161" />
<glyph unicode="&#xe602;" d="M577.796 483.92c0-81.646-12.087-128.969-36.148-141.855-5.245-2.965-12.543-5.017-21.552-6.158-9.122-1.14-15.394-2.623-18.929-4.447-17.561 2.395-24.403 3.535-20.298 3.535 2.965 0-6.614-7.184-28.622-21.552s-42.762-21.552-62.147-21.552c-5.245 0-11.859 2.509-19.841 7.526-7.868 5.017-13.684 7.526-17.219 7.526-8.21 0-13.228-6.158-14.938-18.473-0.57-8.78-1.14-17.903-1.71-27.253-0.57-4.105-3.193-28.508-7.982-73.094-4.105-39.341-7.64-63.401-10.605-72.296-8.78-25.201-26.683-37.858-53.709-37.858-7.070 0-14.368 1.482-22.008 4.333-8.78 10.035-13.228 21.21-13.228 33.411 0 74.576 4.447 132.504 13.228 173.555 13.456 66.366 39.911 115.742 79.252 148.012 6.5-0.57 12.886-3.991 19.385-10.149s9.351-12.429 8.78-18.929c-2.395-42.876-3.877-63.971-4.447-63.401 4.105-12.315 14.368-18.473 30.788-18.473-4.105 0 4.675 1.824 26.455 5.245 19.955 3.535 34.095 12.657 42.306 27.253 2.395 4.105 7.868 20.526 16.763 49.376 9.351 32.841 14.14 48.121 14.14 45.841 0 16.991 0.912 27.253 2.623 30.788-2.395 28.166-5.017 47.323-7.982 57.244-6.5 23.49-17.561 37.858-33.525 43.218-23.49-6.5-56.103-34.894-97.725-85.409-38.771-45.841-70.813-68.761-96.014-68.761-11.175 0-22.578 3.421-34.323 10.149s-17.903 15.394-18.473 25.999c14.71 28.736 46.069 61.121 94.304 96.927 46.411 33.525 86.664 55.191 120.645 65.226 17.561 4.675 36.376 7.070 56.331 7.070 27.596 0 50.744-12.657 69.559-37.858 11.745-15.85 23.833-40.823 36.148-74.918 7.184-20.754 10.719-33.981 10.719-39.797zM515.193 775.498c0-4.105-1.482-8.21-4.447-12.315-18.245-1.71-36.148-17.789-53.709-48.007s-35.578-46.525-53.709-48.919c-18.245 8.78-36.946 22.008-56.331 39.683-24.061 21.096-36.148 38.999-36.148 53.709s7.298 26.683 22.008 36.148c12.315 8.21 26.455 12.315 42.306 12.315 52.226 0 98.979-10.947 140.030-32.613zM722.273 330.662c-0.57-4.105-1.824-10.263-3.535-18.473-10.605-31.131-31.701-46.753-63.401-46.753-34.665 0-51.998 28.736-51.998 86.322 0 39.341 1.14 66.024 3.535 80.164 6.5 35.806 21.438 53.709 44.928 53.709 2.965 0 5.816-0.342 8.78-0.912 33.525-57.472 54.051-108.9 61.691-154.056zM810.306 736.727c0-28.736-8.552-55.191-25.543-79.252s-39.113-41.963-66.024-53.709c-13.57-5.93-30.56-14.938-51.086-27.253-11.745 1.14-19.271 6.044-22.464 14.482-3.193 8.552-6.272 17.447-9.237 26.911 2.965 37.63 14.368 79.594 34.323 126.004 24.631 58.726 51.428 88.146 80.164 88.146 15.85 0 30.218-12.087 43.218-36.148 11.061-21.894 16.649-41.621 16.649-59.182zM1004.159 516.533c0-12.315-7.412-32.043-22.008-59.068-14.71 6.5-31.701 9.693-51.086 9.693-25.201 0-70.471-7.64-135.697-22.92-18.815 7.070-46.411 14.14-82.787 21.096l-3.535 7.070 0.912 4.447c7.64 27.596 33.525 51.656 77.541 72.182 39.341 18.245 75.147 27.253 107.417 27.253 39.911 0 73.436-10.833 100.461-32.613 0.57-2.395 2.167-6.728 4.903-13.228 2.509-6.386 3.877-11.061 3.877-13.912zM874.619 298.847c0-35.806-2.395-73.664-7.070-113.689-4.105-29.99-14.71-61.121-31.701-93.392-20.526-39.341-42.876-58.384-66.936-57.244h-7.070c-4.105 2.965-6.728 6.728-7.868 11.403 7.070 2.965 17.333 8.21 30.788 15.85 21.096 13.57 31.701 41.393 31.701 83.699 0 20.526-1.368 51.542-3.991 92.935s-3.991 72.41-3.991 92.935c0 44.016 1.71 71.384 5.245 81.874 1.824 5.245 7.070 7.868 15.85 7.868 30.104 0.228 45.042-40.595 45.042-122.241z" horiz-adv-x="1161" />
<glyph unicode="&#xe603;" d="M948.662 588.854c0-18.438-5.894-41.766-17.56-70.238-21.197-51.299-54.687-76.887-100.342-76.887-2.76 0-5.644 0.502-8.403 1.63-1.63 3.387-2.509 6.398-2.509 9.156 0-2.258 2.76 12.793 8.403 45.153 1.128 6.146 1.63 36.248 1.63 90.306 0 3.387 0.251 8.403 0.878 15.051 0.502 6.648 0.878 11.665 0.878 15.051 0 16.181-7.776 31.983-23.455 47.662-36.75 10.034-65.723 15.051-86.92 15.051-5.518 0-14.047-0.753-25.462-2.134s-19.943-2.134-25.462-2.134c-46.282 0-69.361-17.309-69.361-51.801 0-2.76-0.376-6.398-1.254-10.912s-1.254-7.776-1.254-10.034c0-4.515 1.002-11.038 2.885-19.692 2.007-8.654 2.885-15.051 2.885-19.191s0.753-9.909 2.134-17.183c1.379-7.274 2.134-12.041 2.134-14.174 1.128-9.533 1.63-27.093 1.63-52.679 0-10.034 1.63-16.681 5.017-20.069 32.862 3.889 59.327 5.894 79.395 5.894 31.734 0 64.093-3.387 96.954-10.034 4.515-7.274 6.648-14.801 6.648-22.577 0-11.665-4.138-24.583-12.543-38.506s-13.045-23.957-14.174-30.102c-6.648-2.76-12.543-4.138-17.56-4.138-6.648 0-19.566 3.010-38.506 9.156-27.343 8.403-54.561 12.543-81.902 12.543-15.051 0-27.593-5.894-37.628-17.56 0-12.793-8.403-26.215-25.085-40.136s-31.231-20.319-43.523-19.191h-5.769c-0.502 1.128-0.878 2.509-0.878 4.138 0 5.518 1.881 14.299 5.894 26.339 3.889 12.041 5.894 20.821 5.894 26.339 0 3.889-1.128 6.398-3.387 7.526-3.889 0.502-8.027 0.878-12.543 0.878-44.025 0-97.832-13.671-161.298-41.015-9.533 6.146-14.174 11.415-14.174 15.929 0 13.42 4.39 23.706 13.42 30.981 1.63 1.128 6.146 3.010 13.42 5.894 32.36 13.42 64.344 26.717 96.077 40.136 36.75 14.55 70.49 23.706 101.093 27.593-7.776 21.197-11.665 49.042-11.665 83.534 0 9.407 1.379 23.581 4.138 42.27s4.138 31.858 4.138 39.761c0 12.291-6.146 21.698-18.438 28.472-34.618 0-67.981-6.648-100.342-20.069 20.57-11.665 30.981-25.587 30.981-41.766 0-7.274-4.64-15.051-13.797-23.455s-17.434-12.543-24.709-12.543l-4.138 0.878c-7.776 6.146-14.55 16.181-20.069 30.102-3.889 11.163-7.776 22.577-11.665 34.242-22.327-2.76-44.652-10.285-66.853-22.577-27.343-14.55-41.015-31.231-41.015-50.17 0-7.776 9.783-20.821 29.224-38.882s29.224-34.994 29.224-50.547c0-8.403-2.509-19.191-7.526-32.61-5.518-15.051-11.415-23.706-17.56-25.962-5.644 5.518-13.42 14.801-23.455 27.593-3.387 6.774-8.905 16.43-16.681 29.224-7.776 8.905-17.56 24.207-29.224 46.031-1.128 8.403-3.387 20.946-6.648 37.628 4.39 36.75 33.112 69.11 86.042 96.954 22.327 11.163 69.611 29.224 142.108 54.31 50.17 17.309 75.256 31.983 75.256 44.275l-1.63 18.438c-2.258 2.76-5.644 4.766-10.034 5.894-15.553-1.63-35.621-8.153-60.205-19.191-19.566-9.533-39.008-18.689-58.449-27.593-15.553 2.76-30.354 10.912-44.275 24.207-13.921 13.42-20.946 27.593-20.946 42.646 20.069 28.973 63.842 50.673 131.197 65.221 49.543 10.536 101.47 15.929 155.528 15.929 33.99 0 67.73-3.638 101.093-10.912 46.282-9.533 74.88-23.957 86.042-43.523-6.146-11.163-18.689-17.057-37.628-17.56-5.017 5.017-14.299 9.533-27.97 13.42s-24.709 5.894-32.987 5.894c-3.889 0-9.533 0.251-16.681 0.878-7.274 0.502-12.793 0.878-16.681 0.878-13.921 0-33.112-2.76-57.696-8.403-26.717-6.648-44.652-13.42-53.557-20.069-3.889-3.387-6.146-8.905-6.648-16.681 1.128-1.128 5.894-7.025 14.174-17.56 6.146-8.403 11.665-12.543 16.681-12.543 8.905 0 20.946 1.881 35.998 5.894 18.939 5.017 30.981 8.027 35.998 9.156 20.57 3.387 47.912 5.017 81.902 5.017 50.17 0 92.565-13.671 127.057-41.015 37.377-29.6 56.065-68.608 56.065-117.148zM846.691 216.087c0-83.534-45.405-132.952-136.214-148.004-3.889 1.128-8.654 3.638-14.174 7.526-0.502 1.63-0.878 3.638-0.878 5.894 0 2.76 5.894 12.041 17.56 27.593 7.274 9.533 14.174 24.96 20.946 46.408 6.648 21.447 10.034 38.255 10.034 50.547 0 3.889-0.251 7.274-0.878 10.034 2.258 13.42-0.878 24.207-9.156 32.61-4.515 0-10.912 0.251-19.191 0.878-8.403 0.502-14.801 0.878-19.191 0.878-6.146 0-12.417-2.007-18.815-5.894s-9.657-8.654-9.657-14.174c0-3.387 1.002-8.153 2.885-14.55 2.007-6.398 2.885-11.539 2.885-15.427 0-11.163-5.143-21.071-15.427-29.726s-21.573-14.047-33.864-16.306c-13.921 4.515-20.946 13.921-20.946 28.472 0 12.793 4.138 28.723 12.543 47.662-3.889 6.146-11.415 9.156-22.577 9.156-31.734 0-47.662-8.905-47.662-26.717v-64.344c0-16.681-7.025-26.215-20.946-28.472-5.518 4.515-9.783 22.074-12.543 52.679-2.76 27.343-11.665 41.015-26.717 41.015-8.905 0-18.312-2.885-27.97-8.779-9.783-5.894-19.065-11.539-27.97-17.183-0.502-12.291-0.878-16.933-0.878-14.174 0-3.889 9.783-14.55 29.224-32.109s29.224-33.238 29.224-47.287c0-5.518-3.262-10.536-9.657-15.051-6.398-4.39-12.417-6.648-17.935-6.648-5.017 0-8.779 1.755-11.289 5.393s-4.891 10.161-7.149 19.692c-2.258 9.533-5.017 16.181-8.403 20.069-5.017 6.146-15.176 13.671-30.479 22.577s-25.21 17.057-29.726 24.207c-0.502 0-3.889 8.153-10.034 24.207-4.515 11.163-6.648 18.438-6.648 21.698 0 4.515 1.254 9.030 3.763 13.797s20.696 15.176 54.811 31.357c31.231 15.051 52.053 23.957 62.714 26.717 8.905-0.502 21.698 0.878 38.506 4.138 17.309 7.274 51.299 16.43 101.972 27.593 15.051 3.387 45.153 5.017 90.306 5.017 43.523 0 75.757-5.894 96.954-17.56 28.472-16.306 42.646-44.777 42.646-85.415zM468.029 499.425c0-12.291-2.76-23.455-8.403-33.489-6.648-11.665-15.553-17.56-26.717-17.56s-20.946 6.899-29.224 20.946c-5.518 11.163-11.415 22.327-17.56 33.489 1.63 12.793 7.776 19.191 18.438 19.191 30.605 0 51.801-7.526 63.465-22.577zM761.4 534.545c0.502-24.583-12.041-40.136-37.628-46.784-13.42 5.518-24.583 14.174-33.489 25.962-10.662 12.793-15.553 25.962-15.051 39.258v0.878c5.017 8.403 12.291 12.543 21.698 12.543 30.605 0 52.053-9.533 64.344-28.472v-3.387zM763.909 620.712c0-20.57-8.403-34.618-25.085-41.766-15.553 3.889-28.096 12.793-37.628 26.717-11.163 16.181-17.56 25.21-19.191 27.218-1.63 1.881-2.509 4.64-2.509 7.902 0 12.291 6.146 18.438 18.438 18.438 2.258 0 4.39-0.251 6.648-0.878 3.387 0.502 6.899 0.878 10.912 0.878 12.793 0 24.082-3.387 33.864-10.034 9.657-6.774 14.55-16.306 14.55-28.472z" horiz-adv-x="1161" />
<glyph unicode="&#xe604;" d="M963.842 495.177c0-11.361-6.549-23.255-19.647-35.817-18.711-16.973-29.135-26.329-31.14-27.663-2.005-1.469-4.678-2.139-8.153-2.139-15.904 0-36.888 3.341-63.082 10.158-40.897 10.827-61.879 16.171-63.082 16.171-29.002 5.612-69.364 8.553-120.952 8.553-151.691 0-244.578-19.38-278.658-58.004 9.622-20.449 13.9-39.828 12.83-58.004-3.341-49.985-5.079-74.442-5.079-73.24 0-10.827 2.005-21.919 6.014-33.278-1.202-6.28-4.811-13.5-11.093-21.786s-12.163-11.762-17.909-10.692l-45.174 9.354c-8.553 9.622-12.83 20.449-12.83 32.344 0 51.053 9.889 96.226 29.803 135.52l-10.158 6.014c-6.28-1.067-19.111-5.212-38.758-12.295s-31.675-10.692-36.218-10.692c-9.622 0-20.983 4.409-34.080 13.231-12.963 8.954-19.513 17.641-19.513 26.195 11.895 9.622 50.252 22.453 115.072 38.358 41.965 10.158 84.332 20.449 126.968 30.739 47.177 13.632 83.264 22.719 108.256 27.264 99.968 17.641 170.669 26.462 212.1 26.462 35.817 0 72.971-2.005 111.596-6.014 61.879-6.949 92.887-17.108 92.887-30.739zM628.119 328.117c0-9.622-1.202-23.924-3.341-42.633-2.274-18.711-3.341-33.012-3.341-42.633-1.202-2.807-1.737-6.28-1.737-10.158 0-6.817 0.802-17.375 2.539-31.541s2.539-24.993 2.539-32.344c0-16.439-1.737-32.877-5.079-49.45-5.079-23.924-12.295-36.888-21.25-39.159-6.817 4.009-13.096 18.443-18.711 43.435-6.28 29.002-12.163 47.177-17.909 54.529h-3.476c-4.009 0.535-8.553-1.469-13.632-6.014s-12.295-11.093-21.25-19.647c-60.81-48.782-114.806-73.24-161.85-73.24-13.632 0-26.862 6.817-39.693 20.449s-20.315 27.264-22.587 40.897c3.341 8.553 11.895 13.9 25.528 16.171 10.291 0 25.26 0.802 45.174 2.539 72.705 8.553 125.762 20.716 159.309 36.62 13.632 6.28 24.457 17.909 32.344 34.882l-2.539 17.909c0 11.895 2.274 31.541 6.817 58.807s8.822 46.243 12.83 57.068c3.341 9.088 9.622 16.973 18.711 23.924l4.277 0.802c9.088 0 15.904-8.553 20.449-25.528 3.876-11.762 5.88-23.79 5.88-35.684zM851.311 677.476c0-11.895-5.747-26.462-16.973-43.435-20.983-31.274-58.004-54.529-110.794-69.898-40.897-11.361-85.803-17.108-134.584-17.108-61.344 0-114.403 15.103-159.309 45.174-9.622 9.088-24.993 21.651-45.975 37.556-31.274 17.641-46.911 34.882-46.911 51.99 0 15.37 5.079 29.27 15.37 41.699 9.088 9.088 22.719 23.255 40.897 42.633 10.827 13.096 28.334 32.344 52.791 58.004 28.334 24.993 58.538 37.556 90.347 37.556 15.37 0 29.938-7.486 43.837-22.587s20.315-30.204 19.111-45.575v-6.014c-7.885-10.158-24.19-22.186-48.514-35.817-21.651-11.895-40.362-20.181-56.266-24.726-6.28-2.274-28.735-5.612-67.359-10.158-6.28-2.274-14.834-5.346-25.528-9.354-5.079-1.202-12.163-3.341-21.25-6.817-5.612-3.341-8.553-9.354-8.553-17.909 0-18.175 27.264-36.353 81.793-54.529 38.089-13.096 80.591-19.647 127.769-19.647 27.264 0 58.538 10.827 93.689 32.344 35.149 21.651 56.533 44.905 63.884 69.898-2.274 30.071-4.277 47.98-6.014 53.728-4.009 20.449-12.83 35.149-26.462 44.237-10.158 5.079-20.449 10.158-30.739 15.37-13.632 7.352-21.651 14.701-23.924 22.186 15.37-5.079 26.997-7.751 34.882-7.751-5.079 0 2.539 2.539 22.987 7.751 5.612-2.274 13.096-10.023 22.186-22.987 6.28-9.088 12.83-18.443 20.049-28.066 7.083-9.622 21.384-21.919 43.035-36.62 21.516-14.701 36.353-27.934 44.237-39.56 8.42-11.895 12.295-25.661 12.295-41.565zM536.033 363c0-9.622-4.945-17.909-14.968-24.726-9.889-6.817-19.78-10.023-29.402-9.354h-3.476c-10.158 6.817-18.978 16.973-26.462 30.739-10.158 18.711-16.707 30.071-19.647 34.080 2.274 10.158 11.093 15.37 26.462 15.37 45.042 0 67.493-15.37 67.493-46.109zM528.414 264.233c-5.079-22.719-17.909-34.080-38.358-34.080l-6.014 0.802c-16.973 16.973-25.528 34.882-25.528 53.728 0 2.807 0.267 6.014 0.802 9.354 2.807 3.476 6.817 5.079 11.895 5.079 33.681 0 52.657-11.627 57.202-34.882zM646.027 687.631c0-9.088-4.544-16.573-13.632-22.587s-18.443-8.954-28.066-8.954c-10.827 0-19.38 5.346-25.528 16.171-5.747 9.088-8.553 19.647-8.553 31.541 0 5.612 0.535 11.361 1.737 16.973 3.341 5.079 9.622 7.618 18.711 7.618 36.888 0.134 55.331-13.5 55.331-40.763zM936.579 311.143c0-17.108-4.544-39.159-13.632-66.423s-18.711-47.445-29.002-60.543c18.711-23.924 28.066-45.174 28.066-63.884 0-14.166-22.186-26.462-66.423-36.62-10.158 2.807-19.914 11.361-29.002 25.528-1.202 0.535-2.539 0.802-4.277 0.802-6.817 0-17.507-2.406-31.941-7.219s-25.661-7.219-33.681-7.219c-6.817 0-11.627 2.274-14.433 6.817 22.719 6.28 40.095 20.181 51.99 41.699-1.737 4.544-7.083 14.701-16.171 30.739-4.009 9.088-10.023 22.719-17.909 40.897-5.079 8.553-11.895 20.983-20.449 37.421 7.352 4.009 14.166 6.014 20.449 6.014 20.983 0 40.629-5.079 58.807-15.37 20.449-11.895 33.546-18.175 39.159-18.711 8.553 4.009 15.904 20.181 22.186 48.514 5.079 22.719 7.618 41.431 7.618 56.266 0 12.429-10.158 18.711-30.606 18.711-22.719 0-49.45-15.236-80.056-45.575s-54.796-45.575-72.438-45.575c-33.546 0-53.325 11.895-59.609 35.817 13.096 35.817 37.556 64.82 73.24 86.872 34.080 21.651 70.699 32.344 109.86 32.344 40.897 0 69.096-6.949 84.733-20.849s23.521-40.763 23.521-80.457z" horiz-adv-x="1161" />
<glyph unicode="&#xe605;" d="M645.188 567.847v-2.623c-16.649-4.219-35.464-17.903-56.217-41.051-11.973-13.114-24.973-31.245-39.341-54.507-11.973-19.043-23.833-38.086-35.692-57.13-24.973-37.516-55.989-76.857-92.935-117.908-47.095-52.454-83.927-82.787-110.724-91.111-7.184-2.395-16.078-3.535-26.797-3.535-14.938 0.57-23.833 0.912-26.797 0.912l-30.332-2.737c-5.93 4.789-11.973 9.579-17.903 14.254-5.93 4.789-10.719 11.061-14.254 18.815 0 15.508 2.395 26.227 7.184 32.157 2.395 2.965 12.543 9.807 30.332 20.526 12.543 7.754 30.332 23.262 53.595 46.411 13.684 13.114 33.297 33.297 58.954 60.779 9.465 11.859 24.403 29.192 44.7 51.77 26.227 26.227 60.094 55.419 101.83 87.576 53.595 41.051 89.971 61.691 109.014 61.691 31.359-0.114 46.525-8.21 45.384-24.289zM933.687 712.552c0-7.184-4.333-14.254-13-21.438s-16.535-10.719-23.718-10.719c-2.395 0-12.543 3.307-30.332 9.807-20.868 7.184-32.157 11.061-33.981 11.631-23.833 6.5-55.989 9.807-96.47 9.807-31.587 0-73.892-5.816-126.803-17.447-53.024-11.631-94.076-23.947-123.268-37.060-13.684-6.614-27.139-14.026-40.253-22.35-1.824-1.254-19.043-15.508-51.77-42.876-23.262-19.613-41.735-29.534-55.419-29.534-15.508 0-36.604 7.754-63.401 23.262-28.622 16.649-42.876 31.815-42.876 45.498 0-2.395 0.912 7.982 2.623 31.245 54.165 44.016 125.092 79.822 212.554 107.189 82.216 25.657 160.784 38.429 235.816 38.429 151.205 0 233.422-22.692 246.535-67.849 2.623-7.64 3.763-16.877 3.763-27.596zM675.521 103.398l-6.272-26.797-39.341-36.604c-34.551 11.289-58.612 26.341-72.41 45.156-13.684 18.815-20.526 46.525-20.526 83.471 0 47.665 5.017 94.076 15.166 139.346l5.359 7.982c23.262 0 39.569-5.702 49.147-16.991 4.105-5.359 7.982-13.114 11.631-23.262 4.105-11.859 7.184-19.613 8.894-23.262 17.447-32.043 33.525-81.76 48.349-149.039zM923.881 290.979c0-5.93-2.053-15.394-6.272-28.166s-6.272-22.464-6.272-29.078c-4.219-2.965-7.754-4.789-10.719-5.359-19.043 3.535-33.639 9.237-43.788 16.991-17.333 11.289-35.122 28.394-53.595 51.428-18.473 22.92-31.587 43.902-39.341 62.945l3.535 4.447 5.359 0.912c44.7 0 76.515-2.965 95.558-8.894 37.060-10.719 55.533-32.499 55.533-65.226z" horiz-adv-x="1161" />
<glyph unicode="&#xe606;" d="M357.374 156.308c0-13.798-9.351-27.025-28.166-39.797-18.701-12.771-35.578-19.157-50.63-19.157-33.183 0-49.718 30.56-49.718 91.909v18.701c0 11.289 3.079 19.727 9.351 25.315l10.263 0.912c21.21 0.57 44.016-6.614 68.419-21.552 27.025-16.991 40.481-35.692 40.481-56.331zM860.707 475.025c0-40.595-5.93-73.778-17.789-99.321-19.955-43.104-47.209-71.498-81.532-85.295-24.403-10.035-63.401-15.052-117.224-15.052-6.842 0-16.877-0.342-29.99-0.912-13.114-0.684-22.806-0.912-29.078-0.912-23.718 0-54.963 7.184-93.734 21.552-45.042 17.447-75.945 27.482-92.821 29.99 2.509 15.052 13.114 22.464 31.815 22.464 18.131 0 36.832-5.359 56.217-15.964s35.92-15.964 49.718-15.964c49.946 0 93.734 10.947 131.25 32.841 40.595 23.718 69.331 58.156 86.208 103.084 10.605 29.42 15.964 54.051 15.964 74.006 0 16.192-3.763 36.262-11.289 59.98-10.605 29.42-39.113 44.016-85.295 44.016-35.008 0-68.077-12.201-99.321-36.604-8.78-6.842-33.183-32.157-73.094-75.945-28.736-29.99-54.963-49.033-78.796-57.13-13.114 0.57-23.604 7.526-31.359 20.64-7.868 13.114-11.745 26.569-11.745 40.367 0 18.131 10.035 36.262 29.99 54.393 29.42 26.227 65.91 47.323 109.698 63.287s86.208 23.947 127.487 23.947c10.605 0 20.64-0.684 29.99-1.824 64.314 54.963 96.584 96.584 96.584 124.636-9.351 23.718-27.596 43.104-54.849 58.156-27.139 15.052-54.507 22.464-81.988 22.464-38.086 0-67.506-3.421-88.146-10.263-14.938-5.588-40.025-19.955-75.033-43.104-10.605-6.272-25.657-17.219-45.042-32.841-11.289-8.78-24.973-22.464-41.279-41.279-6.272-13.798-10.605-28.394-13.114-44.016-1.254-5.017-1.824-16.877-1.824-35.578 0-23.718-5.588-45.27-16.877-64.656-13.798-23.148-31.587-34.665-53.481-34.665-15.622 0-29.648 4.789-42.192 14.482s-18.701 22.35-18.701 37.972c0 87.462 17.219 149.039 51.542 184.731 27.482 28.736 79.708 52.112 156.565 70.243 63.857 14.938 122.355 22.35 175.494 22.35 50.63 0 94.988-7.526 133.074-22.464 51.884-20.64 77.769-51.884 77.769-93.734 0-18.131-7.868-40.937-23.376-68.419-14.368-24.973-29.078-44.7-44.016-59.068 2.509-4.333 18.473-17.447 47.779-39.341 30.56-23.718 45.841-67.506 45.841-131.25zM837.331 198.5c-4.333-4.333-8.096-13.798-11.289-28.166-3.079-14.368-7.754-24.517-14.026-30.446s-15.622-15.166-28.166-27.71c-7.526-8.096-19.385-19.955-35.578-35.578-11.289-10.035-33.867-20.184-67.963-30.446s-59.524-15.508-76.401-15.508c-35.008 0-68.305 14.254-99.777 42.648-31.587 28.394-47.323 60.094-47.323 95.102 0 22.464 6.614 33.069 19.727 31.815 23.718-3.079 54.393-17.789 91.909-44.016 35.008-24.403 67.506-36.604 97.497-36.604 35.008 0 65.568 5.93 91.909 17.789 34.323 15.052 53.709 37.516 58.156 67.506h3.763c7.868 0.114 13.798-2.053 17.561-6.386zM661.039 461.912c0-15.622-5.017-30.218-15.052-43.56-10.035-13.456-22.464-20.184-37.516-20.184-13.114 6.842-25.429 17.675-37.060 32.385-11.517 14.71-17.333 28.622-17.333 41.735 0 4.333 0.57 8.78 1.824 13.114 10.605 11.859 27.482 17.789 50.63 17.789 13.114 0 25.429-3.763 37.060-11.289 11.745-7.526 17.447-17.561 17.447-29.99zM725.808 220.052c-3.763-2.509-10.947-13.456-21.552-32.841-8.096-15.622-18.131-23.49-29.99-23.49-10.035 0-20.526 6.044-31.359 18.245-10.947 12.201-16.42 23.262-16.42 33.297 0 17.447 15.964 26.227 47.779 26.227 19.955 0.114 37.174-7.070 51.542-21.438zM1019.211 243.428c-3.079-14.368-10.149-27.482-21.096-39.341s-23.262-19.043-37.060-21.552c-15.622 5.017-32.157 17.219-49.718 36.604-28.166 31.245-42.534 47.209-43.104 47.779 0 20.64 14.368 30.902 43.104 30.902 31.245 0 53.139-2.509 65.568-7.526 18.815-6.842 32.955-22.464 42.306-46.867z" horiz-adv-x="1161" />
<glyph unicode="&#xe607;" d="M552.064 329.095c0 5.518-1.63-10.912-5.017-49.292-5.518-57.445-29.474-95.325-71.87-113.636-13.921 0-27.593 16.181-40.889 48.415-3.889 6.146-8.403 16.681-13.42 31.734 1.128 5.518 7.526 10.285 19.191 14.174s19.442 10.536 23.455 20.069c8.403 17.309 15.929 46.534 22.577 87.799 6.648 38.381 10.034 68.859 10.034 91.061 0 17.309 1.63 43.398 5.017 78.518s5.017 61.583 5.017 79.395c0 54.561-13.42 93.065-40.136 115.267-2.76 0.502-5.894 0.878-9.156 0.878-10.034 0-23.455-3.638-40.136-10.912-8.905-3.889-18.815-9.909-29.726-17.935s-21.071-15.427-30.479-22.201c-11.163-5.518-26.967-14.801-47.662-27.593-8.403-6.146-14.174-12.793-17.56-20.069 1.128-44.526 11.415-112.759 30.981-204.696 19.442-89.178 29.224-157.409 29.224-204.696 0-53.432-19.191-86.042-57.696-97.706-24.457 11.665-36.75 42.394-36.75 91.937 0 7.776 0.502 19.692 1.63 35.496 1.128 15.929 1.63 27.719 1.63 35.496 0 22.827-2.383 56.943-7.149 102.347s-7.149 79.52-7.149 102.347c0 7.776 0.376 20.069 1.254 36.75s1.254 29.224 1.254 37.628c0 15.553-2.76 36.499-8.403 62.714-5.518 26.215-8.403 44.275-8.403 54.31 0 30.102 29.224 54.058 87.799 71.87 43.398 13.42 85.541 20.069 126.178 20.069 21.197 0 40.763-7.902 58.951-23.831 18.061-15.929 30.479-58.7 37.126-128.311 2.258-25.085 4.138-71.618 5.894-139.599 0-12.291 0.878-38.381 2.509-78.518 1.254-32.862 1.881-59.327 1.881-79.27zM440.937 598.888c0-7.776-6.648-18.939-20.069-33.363-10.034-9.533-20.069-19.191-30.102-29.224h-9.156c-1.63 1.63-2.76 3.638-3.387 5.894l4.138 17.56c-3.889 9.407-7.526 18.689-10.912 27.593-4.515 11.163-6.648 20.57-6.648 28.472 0 5.518 5.518 11.163 16.681 16.681 12.291 0 24.457-2.509 36.75-7.526 15.176-6.774 22.702-15.427 22.702-26.088zM455.111 404.226c-3.387-7.776-6.398-15.302-9.156-22.577-4.515-8.905-10.912-13.42-19.191-13.42-16.681 0-29.726 5.644-38.882 17.183-9.156 11.415-13.797 25.711-13.797 43.021 0 8.905 1.379 17.309 4.138 25.085l15.051 3.387c8.905 0 19.442-4.766 31.734-14.174 8.905-8.403 17.81-16.43 26.717-24.207l3.387-14.299zM708.22 764.451c-13.42-13.42-26.967-26.717-40.889-40.136-19.566-18.939-34.242-28.472-44.275-28.472-3.889 0-9.783 1.63-17.56 5.017-12.793 5.017-21.447 11.665-25.962 20.069-2.76 5.017-5.017 15.929-6.648 32.61-4.515 31.734-6.648 50.422-6.648 55.941v9.156c4.39 11.163 13.045 16.681 25.962 16.681 10.034 0 25.336-9.156 45.906-27.593s39.51-27.593 56.818-27.593c3.889 0 7.776 0.251 11.665 0.878 0-2.258 0.251-5.143 0.878-8.779 0.502-3.512 0.753-6.146 0.753-7.776zM902.13 436.837c-15.051-36.248-29.224-62.336-42.646-78.518-17.309-20.069-41.766-36.248-73.5-48.415-1.63-0.502-8.905-4.515-21.698-11.665-8.905-4.515-16.681-6.648-23.455-6.648-7.274-3.387-17.81-16.181-31.734-38.381-16.181-24.457-27.343-39.51-33.363-45.153-9.533-9.533-26.215-19.316-50.17-29.726-23.957-10.285-40.387-19.316-49.292-27.218l-2.509 2.509c-0.502 2.258-0.878 4.515-0.878 6.648 0 8.403 13.42 27.593 40.136 57.696s39.885 52.302 39.258 66.853v0.878c-11.665 11.163-23.455 22.577-35.119 34.242-15.051 15.553-22.577 29.224-22.577 40.889 0 3.387 0.502 6.648 1.63 10.034 7.274 8.403 23.706 15.051 49.292 20.069 18.939 2.76 37.879 5.518 56.818 8.403 3.387 3.889 9.156 14.801 17.56 32.61 7.776 15.051 13.671 23.706 17.56 25.962 4.515-1.63 8.654-8.905 12.543-21.698 5.017-14.55 8.905-23.079 11.665-25.962 2.76-0.502 5.894-0.878 9.156-0.878 13.42 0 33.363 5.393 60.205 16.306 26.717 10.912 47.035 16.055 60.957 15.427l5.894-0.878 4.264-3.387zM913.041 608.922c-4.515-3.387-12.041-11.665-22.577-25.085-8.403-11.665-16.181-19.191-23.455-22.577-2.258-1.63-25.336-9.783-69.361-24.207-33.363-11.163-53.432-22.074-60.205-32.61-23.455-6.146-41.766-9.156-55.189-9.156-11.665 0-20.069 1.128-25.085 3.387-11.163 4.39-22.827 14.047-35.119 28.847s-18.438 27.719-18.438 38.882c5.518 12.291 13.671 21.197 24.207 26.717 17.309 9.407 52.929 18.061 106.989 25.962 46.784 6.648 84.663 10.034 113.636 10.034 31.983-0.126 53.432-6.774 64.594-20.193zM973.999 162.78c-14.55-23.455-25.587-35.119-33.363-35.119-2.258 0-5.518 0-10.034 0-3.889 0.502-7.025 0.878-9.156 0.878-2.76 0-5.518-0.878-8.403-2.509-18.939 7.776-36.499 24.834-52.679 50.923-12.291 21.197-24.834 42.646-37.628 64.344 3.387 15.553 8.654 23.455 15.929 23.455-1.128 0 2.258-0.878 10.034-2.509 22.827-3.889 38.129-7.025 45.906-9.156 15.553-5.017 29.474-12.041 41.766-20.946 22.827-17.935 35.37-41.015 37.628-69.361zM971.49 793.675c0-17.81-5.894-33.99-17.56-48.415-11.665-14.55-26.215-23.079-43.398-25.962l-28.472 9.156c-5.017 1.63-11.289-1.755-18.815-10.41s-12.669-12.919-15.427-12.919c-0.502 6.146-0.878 11.915-0.878 17.56 0 28.472 3.889 54.811 11.665 79.395 10.536 35.119 26.465 52.679 47.662 52.679 16.681 0 31.734-6.146 45.153-18.438s20.069-26.465 20.069-42.646z" horiz-adv-x="1161" />
<glyph unicode="&#xe608;" d="M560.3 38.2l-122.4 1.8-47.1 48.6 220.8-3.5-51.3-46.9zM446.5 59.9l106.2-1.6 8.3 7.6-122.2 1.9 7.7-7.9zM607.3 96.1h-0.5l-211.8 3.4c-6.1 0.1-10.9 1.9-14.3 5.5-2.2 2.2-4.7 6.3-4.6 12.6l1.6 97.4c0.2 11.5 7.7 18.9 19.1 18.9h0.5l211.7-3.4c11.7-0.2 19.1-7.9 18.9-19.6l-1.6-97.4c-0.2-10.6-7.7-17.4-19-17.4zM396.1 119.5l210.2-3.4 1.6 94.4-210.2 3.4-1.6-94.4zM529.7 125.2v0h-0.6c-10.5 0.1-19.7 4.4-26.6 12.2-6.7 7.5-10 16.8-9.9 27.7v0.1c0.3 10.8 3.9 20 10.8 27.3 7.1 7.5 16 11.3 26.4 11.3h0.5c10.4-0.1 19.4-4.1 27-11.8 7.5-7.8 11.2-17.2 11.1-28.1-0.1-11-4.4-20.6-12.6-28.6-7.1-6.7-15.9-10.1-26.1-10.1zM512.6 164.8c-0.1-5.9 1.5-10.4 4.9-14.1 3.2-3.7 7-5.4 11.9-5.5h0.3c5.1 0 8.9 1.4 12.2 4.6 4.4 4.2 6.5 8.8 6.5 14.4 0.1 5.6-1.6 10-5.4 13.9-3.8 3.8-7.9 5.7-12.9 5.7h-0.3c-4.8 0-8.5-1.6-11.8-5.1-3.5-3.6-5.2-8-5.4-13.9zM614.2 238.2l-223.7 3.6-62.6 163.3c-15.1 17.9-28.8 37.9-40.7 59.6-31.8 52.4-47.7 97.5-47.1 134.2 1.2 74.6 28.7 138.4 81.7 189.7s117.1 76.8 190.7 75.6c73.5-1.1 136.7-28.6 188.1-81.6 51.3-53 76.8-117.6 75.6-192.2-0.6-36.9-18-81.5-51.6-132.7-12.8-20.5-27.1-40-42.5-58l-67.9-161.5zM404.3 261.6l196.7-3.2 63.9 151.8 1 1.2c15.2 17.6 29.3 36.7 41.8 56.8l0.1 0.2c31.5 48.1 47.8 89.2 48.4 122.2 0.5 34.6-5.1 67.1-16.7 96.5-11.6 29.5-29.5 56.9-53.3 81.5s-50.5 43.4-79.3 55.9c-28.9 12.5-60.8 19.2-94.8 19.7-34.8 0.5-67.5-5.3-97.3-17.4-28.5-11.6-55.2-29.3-79.2-52.6-24.6-23.8-43.4-50.6-55.9-79.7s-19.2-61.4-19.7-96c-0.5-32.9 14.5-74.5 44.3-123.6l0.2-0.4c11.6-21.1 25-40.5 39.6-57.7l1.1-1.3 59.1-153.9zM574.7 297.6l-143 2.3-54.1 134.4-2.2 3.4c-17.4 21.2-34.9 47.3-51.9 77.6-17.8 31.6-26.6 59.4-26.3 82.7 0.9 58.2 22.5 108 64 148.2 41.6 40.2 92.1 60.1 150.2 59.2 58.2-0.9 108-22.5 148.2-64 40.2-41.6 60.2-92.1 59.2-150.2-0.3-23.6-9.8-50.3-29-81.8-17.9-29.5-36-54.8-53.7-75.2l-61.4-136.6zM445.3 319.7l116.6-1.9 57.3 127.4 1 1.1c17.3 19.7 35 44.4 52.7 73.5 17 28 25.8 52.1 26 71.7 0.4 26.4-3.9 51.2-12.7 73.7-8.9 22.5-22.6 43.5-40.9 62.3-36.4 37.6-81.5 57.1-134.2 58-52.6 0.9-98.3-17.2-136-53.6-37.6-36.4-57.1-81.5-58-134.2-0.3-19.7 7.7-44.2 23.7-72.6 16.6-29.4 33.5-54.7 50.3-75.2l0.4-0.5 3.8-6 50-123.7z" />
<glyph unicode="&#xe609;" d="M246.8 592.6c0 72.5 25.4 134.1 76.1 184.9 50.7 50.7 111.9 76.1 183.3 76.1 71.5 0 132.6-25.4 183.3-76.1s76.1-112.4 76.1-184.9c0-35.2-16.1-78.2-48.2-128.9-12.4-20.7-26.4-40.4-41.9-59l-63.7-158.4h-211.2l-63.7 158.4c-15.5 17.6-29.5 37.3-41.9 59-32.1 50.7-48.2 93.7-48.2 128.9zM613.4 218.3c6.2 0 9.3-3.1 9.3-9.3v-97.9c0-5.2-3.1-7.8-9.3-7.8h-212.8c-6.2 0-9.3 2.6-9.3 7.8v97.9c0 6.2 3.1 9.3 9.3 9.3h212.8zM420.8 72.2h172.4l-29.5-28h-114.9l-28 28zM554.4 139c6.2 6.2 9.3 13.4 9.3 21.7s-2.9 15.2-8.5 21c-5.7 5.7-12.4 8.5-20.2 8.5s-14.3-2.9-19.4-8.5c-5.2-5.7-7.8-12.7-7.8-21s2.6-15.3 7.8-21c5.2-5.7 11.6-8.5 19.4-8.5 7.8 0.1 14.2 2.6 19.4 7.8z" />
<glyph unicode="&#xe60a;" d="M866.4 176.5l-719.6 0.4 0.3 501 719.6-0.4-0.3-501zM166.8 196.9l679.6-0.4 0.3 461-679.6 0.4-0.3-461zM506.7 240.9c-50.8 0-94.8 18.2-130.7 54.2-35.9 35.9-54.1 79.9-54.1 130.8 0 50.8 18.2 94.8 54.2 130.7 35.9 35.9 79.9 54.1 130.8 54.1 50.8 0 94.8-18.2 130.7-54.2 35.9-35.9 54.1-79.9 54.1-130.8-0.1-50.8-18.6-95-54.9-131.4-35.5-35.4-79.2-53.4-130.1-53.4zM506.9 590.7c-46 0-84.1-15.8-116.6-48.3-32.1-32-48.4-71.2-48.4-116.5 0-46 15.8-84.1 48.3-116.6 32.5-32.6 70.6-48.4 116.5-48.4 46 0 83.9 15.6 115.9 47.6 32.9 32.9 49 71.3 49.1 117.2 0 46-15.8 84.1-48.3 116.6-32 32.1-71.2 48.4-116.5 48.4zM506.7 298.3c-34.5 0-64.4 12.5-89.1 37.1-24.6 24.6-37 54.8-37 89.8s12.5 65.1 37.1 89.7c24.7 24.6 54.6 37 89.1 37s64.4-12.5 89.1-37.1c24.6-24.7 37-55.1 37-90.5 0-34.4-12.5-64.3-37.1-89-24.6-24.5-54.6-37-89.1-37zM506.8 531.9c-29.4 0-53.9-10.2-74.9-31.2-21-20.9-31.3-45.6-31.3-75.5s10.2-54.7 31.2-75.6c21-21 45.6-31.3 74.9-31.3 29.4 0 54 10.2 74.9 31.2 21 21 31.3 45.5 31.3 74.8 0 30.3-10.2 55.3-31.2 76.3-21 21.1-45.5 31.3-74.9 31.3zM823.1 701.2l-282.4 0.2 0.1 107.5 282.4-0.2-0.1-107.5zM560.7 721.4l242.4-0.2 0.1 67.5-242.4 0.2-0.1-67.5z" />
<glyph unicode="&#xe60b;" d="M856.7 667.5l-0.3-481-699.6 0.4 0.3 481 699.6-0.4zM681.7 425.7c0 48.3-17 89.5-51.2 123.7-34.1 34.2-75.4 51.3-123.6 51.3-48.3 0-89.5-17-123.7-51.2-34.2-34.1-51.3-75.4-51.3-123.6 0-48.3 17-89.5 51.2-123.7 34.1-34.2 75.3-51.3 123.6-51.3s89.3 16.8 123 50.5c34.6 34.6 51.9 76 52 124.3zM588.7 342.4c-22.8-22.8-50.1-34.1-82-34.1s-59.2 11.4-82 34.2-34.1 50.3-34.1 82.7c0 32.3 11.4 59.9 34.2 82.6s50.1 34.1 82 34.1 59.2-11.4 82-34.2c22.7-22.8 34.1-50.6 34.1-83.4 0-31.8-11.4-59.1-34.2-81.9zM550.7 711.4l262.4-0.2 0.1 87.5-262.4 0.2-0.1-87.5z" />
<glyph unicode="&#xe60c;" d="M448.8 97.3l-4.9 533.7-269.4-2.5-0.8 85.8 675.8 6.2 0.8-85.8-270.7-2.5 4.9-533.7-135.7-1.2zM463.7 651.2l4.9-533.7 95.7 0.9-4.9 533.7 270.7 2.5-0.4 45.8-635.8-5.8 0.4-45.8 269.4 2.4z" />
<glyph unicode="&#xe60d;" d="M453.8 641.1l-269.4-2.5-0.6 65.8 655.8 6 0.6-65.8-270.7-2.5 4.9-533.7-115.7-1.1-4.9 533.8z" />
<glyph unicode="&#xe60e;" d="M389.8 737.5h-158.8v-158.8h158.8v158.8zM429.5 777.2v0-238.2h-238.2v238.2h238.2zM270.7 697.8h79.4v-79.4h-79.4v79.4zM786.8 737.5h-158.8v-158.8h158.8v158.8zM826.5 777.2v0-238.2h-238.2v238.2h238.2zM667.7 697.8h79.4v-79.4h-79.4v79.4zM389.8 340.5h-158.8v-158.8h158.8v158.8zM429.5 380.2v0-238.2h-238.2v238.2h238.2zM270.7 300.8h79.4v-79.4h-79.4v79.4zM469.2 777.2h39.7v-39.7h-39.7v39.7zM508.9 737.5h39.7v-39.7h-39.7v39.7zM469.2 697.8h39.7v-39.7h-39.7v39.7zM508.9 658.1h39.7v-39.7h-39.7v39.7zM469.2 618.4h39.7v-39.7h-39.7v39.7zM508.9 578.7h39.7v-39.7h-39.7v39.7zM469.2 539h39.7v-39.7h-39.7v39.7zM469.2 459.6h39.7v-39.7h-39.7v39.7zM508.9 419.9h39.7v-39.7h-39.7v39.7zM469.2 380.2h39.7v-39.7h-39.7v39.7zM508.9 340.5h39.7v-39.7h-39.7v39.7zM469.2 300.8h39.7v-39.7h-39.7v39.7zM508.9 261.1h39.7v-39.7h-39.7v39.7zM469.2 221.4h39.7v-39.7h-39.7v39.7zM508.9 181.7h39.7v-39.7h-39.7v39.7zM786.8 459.6h39.7v-39.7h-39.7v39.7zM231 459.6h39.7v-39.7h-39.7v39.7zM270.7 499.3h39.7v-39.7h-39.7v39.7zM191.3 499.3h39.7v-39.7h-39.7v39.7zM350.1 499.3h39.7v-39.7h-39.7v39.7zM389.8 459.6h39.7v-39.7h-39.7v39.7zM429.5 499.3h39.7v-39.7h-39.7v39.7zM548.6 459.6h39.7v-39.7h-39.7v39.7zM588.3 499.3h39.7v-39.7h-39.7v39.7zM628 459.6h39.7v-39.7h-39.7v39.7zM667.7 499.3h39.7v-39.7h-39.7v39.7zM707.4 459.6h39.7v-39.7h-39.7v39.7zM747.1 499.3h39.7v-39.7h-39.7v39.7zM786.8 380.2h39.7v-39.7h-39.7v39.7zM548.6 380.2h39.7v-39.7h-39.7v39.7zM588.3 419.9h39.7v-39.7h-39.7v39.7zM628 380.2h39.7v-39.7h-39.7v39.7zM707.4 380.2h39.7v-39.7h-39.7v39.7zM747.1 419.9h39.7v-39.7h-39.7v39.7zM786.8 300.8h39.7v-39.7h-39.7v39.7zM548.6 300.8h39.7v-39.7h-39.7v39.7zM588.3 340.5h39.7v-39.7h-39.7v39.7zM667.7 340.5h39.7v-39.7h-39.7v39.7zM707.4 300.8h39.7v-39.7h-39.7v39.7zM747.1 340.5h39.7v-39.7h-39.7v39.7zM786.8 221.4h39.7v-39.7h-39.7v39.7zM588.3 261.1h39.7v-39.7h-39.7v39.7zM628 221.4h39.7v-39.7h-39.7v39.7zM667.7 261.1h39.7v-39.7h-39.7v39.7zM707.4 221.4h39.7v-39.7h-39.7v39.7zM588.3 181.7h39.7v-39.7h-39.7v39.7zM667.7 181.7h39.7v-39.7h-39.7v39.7zM747.1 181.7h39.7v-39.7h-39.7v39.7z" />
<glyph unicode="&#xe60f;" d="M479 468.8l1.7-2.9v-7.1l-1.7-5c-0.8-1.1-5.7-7.9-14.5-20.4s-21.4-25.9-37.6-40.1c-16.3-14.3-36.2-27.3-59.7-39.1s-50.3-17.7-80.3-17.7c-30.3 0-57.1 5.9-80.5 17.7s-43.4 24.8-59.9 39.1c-16.3 14.3-28.8 27.7-37.6 40.1-8.8 12.5-13.7 19.3-14.5 20.4l-1.7 2.9v7.1l1.7 5c0.8 1.1 5.7 7.9 14.5 20.4s21.4 25.9 37.6 40.1c16.5 14.3 36.5 27.3 59.9 39.1s50.2 17.7 80.5 17.7c30 0 56.8-5.9 80.3-17.7s43.4-24.8 59.7-39.1c16.3-14.3 28.8-27.7 37.6-40.1 8.8-12.5 13.7-19.3 14.5-20.4zM286.9 362.4c22.7 0 43.4 4.1 62.2 12.4s35.2 17.9 49.2 28.8c14.3 10.9 26.1 21.9 35.3 33s15.7 19.3 19.3 24.6c-3.6 5.3-10.1 13.5-19.3 24.6s-21 22.1-35.3 33c-14 10.9-30.4 20.5-49.2 28.8s-39.5 12.4-62.2 12.4c-23 0-43.8-4.1-62.4-12.4s-35.1-17.9-49.4-28.8c-14-10.9-25.6-21.9-34.9-33-9.2-11.1-15.8-19.3-19.8-24.6 3.9-5.3 10.5-13.5 19.8-24.6 9.2-11.1 20.9-22.1 34.9-33 14.3-10.9 30.8-20.5 49.4-28.8 18.6-8.2 39.4-12.4 62.4-12.4zM286.9 531.9c9.8 0 19.1-1.8 27.7-5.5 8.7-3.6 16.3-8.8 22.7-15.6 6.7-6.5 11.9-14 15.6-22.7 3.6-8.7 5.5-17.9 5.5-27.7 0-10.1-1.8-19.5-5.5-28.2-3.6-8.7-8.8-16.3-15.6-22.7-6.5-6.5-14-11.6-22.7-15.3-8.7-3.8-17.9-5.7-27.7-5.7-10.1 0-19.5 1.9-28.2 5.7s-16.3 8.9-22.7 15.3c-6.5 6.4-11.6 14-15.3 22.7-3.8 8.7-5.7 18.1-5.7 28.2 0 9.8 1.9 19.1 5.7 27.7 3.8 8.7 8.9 16.3 15.3 22.7 6.4 6.7 14 11.9 22.7 15.6 8.7 3.6 18.1 5.5 28.2 5.5zM313.4 467.1c2.8 0 5.5 0.6 8 1.7s4.8 2.7 6.7 4.6c2 1.7 3.4 3.8 4.4 6.3s1.5 5.2 1.5 8c0 3.1-0.6 5.9-1.7 8.4s-2.5 4.6-4.2 6.3c-2 2-4.2 3.5-6.7 4.6s-5.2 1.7-8 1.7-5.5-0.6-8-1.7-4.8-2.7-6.7-4.6c-1.7-1.7-3.1-3.8-4.2-6.3s-1.7-5.3-1.7-8.4c0-2.8 0.6-5.5 1.7-8s2.5-4.6 4.2-6.3c2-2 4.2-3.5 6.7-4.6s5.2-1.7 8-1.7zM775.4 514.9c15.4 0 29.8-2.9 43.2-8.6 13.4-5.8 25.2-13.7 35.3-23.8s18-21.9 23.8-35.3c5.8-13.5 8.6-27.9 8.6-43.2v-168.6h-405.6v168.5c0 15.4 2.9 29.8 8.6 43.2 5.8 13.4 13.7 25.2 23.8 35.3s21.9 18 35.3 23.8c13.4 5.8 27.9 8.6 43.2 8.6 0.5 0 1.2 0 2.2 0s1.7 0 2.2 0c-7.2 6.2-13.7 13.1-19.5 20.5s-10.8 15.5-15.1 24.1c-3.9 8.6-7 17.8-9.4 27.4s-3.6 19.5-3.6 29.5c0 18.7 3.6 36.3 10.8 52.6s16.8 30.7 28.8 43.2c12.5 12 26.9 21.5 43.2 28.5s33.9 10.4 52.6 10.4c18.3 0 35.7-3.5 52.2-10.4 16.6-7 30.9-16.5 42.9-28.5 12-12.5 21.6-26.9 28.8-43.2s10.8-33.9 10.8-52.6c0-10.1-1.1-19.9-3.2-29.5-2.2-9.6-5.4-18.7-9.7-27.4-4.3-8.6-9.4-16.7-15.1-24.1-5.8-7.5-12.3-14.3-19.5-20.5 1 0 1.8 0 2.5 0s1.5 0.1 1.9 0.1zM842.5 279.2v124.7c0 9.1-1.8 17.8-5.4 25.9-3.6 8.2-8.3 15.1-14.1 20.9-6.2 6.2-13.5 11-21.6 14.4-8.2 3.4-16.8 5-25.9 5h-183.8c-9.1 0-17.8-1.7-25.9-5-8.2-3.4-15.1-8.2-20.9-14.4-6.2-5.8-11.2-12.7-14.8-20.9s-5.4-16.8-5.4-25.9v-124.7h317.8zM683.9 707.3c-12.5 0-24.3-2.4-35.3-7.2-11.1-4.8-20.7-11.3-28.8-19.5-8.2-8.2-14.7-17.8-19.5-28.8-4.8-11.1-7.2-22.8-7.2-35.3s2.4-24.3 7.2-35.3c4.8-11.1 11.3-20.7 19.5-28.8 8.2-8.2 17.8-14.7 28.8-19.5s22.8-7.2 35.3-7.2 24.1 2.4 35 7.2c10.8 4.8 20.5 11.3 29.2 19.5 8.2 8.2 14.5 17.8 19.1 28.8s6.8 22.8 6.8 35.3-2.3 24.3-6.8 35.3c-4.6 11-10.9 20.7-19.1 28.8-8.6 8.2-18.4 14.6-29.2 19.5-10.8 4.8-22.5 7.2-35 7.2zM811.756 80.752l-599.786 768.549 15.765 12.303 599.786-768.549-15.765-12.303z" />
<glyph unicode="&#xe610;" d="M479 468.8l1.7-2.9v-7.1l-1.7-5c-0.8-1.1-5.7-7.9-14.5-20.4s-21.4-25.9-37.6-40.1c-16.3-14.3-36.2-27.3-59.7-39.1s-50.3-17.7-80.3-17.7c-30.3 0-57.1 5.9-80.5 17.7s-43.4 24.8-59.9 39.1c-16.3 14.3-28.8 27.7-37.6 40.1-8.8 12.5-13.7 19.3-14.5 20.4l-1.7 2.9v7.1l1.7 5c0.8 1.1 5.7 7.9 14.5 20.4s21.4 25.9 37.6 40.1c16.5 14.3 36.5 27.3 59.9 39.1s50.2 17.7 80.5 17.7c30 0 56.8-5.9 80.3-17.7s43.4-24.8 59.7-39.1c16.3-14.3 28.8-27.7 37.6-40.1 8.8-12.5 13.7-19.3 14.5-20.4zM286.9 362.4c22.7 0 43.4 4.1 62.2 12.4s35.2 17.9 49.2 28.8c14.3 10.9 26.1 21.9 35.3 33s15.7 19.3 19.3 24.6c-3.6 5.3-10.1 13.5-19.3 24.6s-21 22.1-35.3 33c-14 10.9-30.4 20.5-49.2 28.8s-39.5 12.4-62.2 12.4c-23 0-43.8-4.1-62.4-12.4s-35.1-17.9-49.4-28.8c-14-10.9-25.6-21.9-34.9-33-9.2-11.1-15.8-19.3-19.8-24.6 3.9-5.3 10.5-13.5 19.8-24.6 9.2-11.1 20.9-22.1 34.9-33 14.3-10.9 30.8-20.5 49.4-28.8 18.6-8.2 39.4-12.4 62.4-12.4zM286.9 531.9c9.8 0 19.1-1.8 27.7-5.5 8.7-3.6 16.3-8.8 22.7-15.6 6.7-6.5 11.9-14 15.6-22.7 3.6-8.7 5.5-17.9 5.5-27.7 0-10.1-1.8-19.5-5.5-28.2-3.6-8.7-8.8-16.3-15.6-22.7-6.5-6.5-14-11.6-22.7-15.3-8.7-3.8-17.9-5.7-27.7-5.7-10.1 0-19.5 1.9-28.2 5.7s-16.3 8.9-22.7 15.3c-6.5 6.4-11.6 14-15.3 22.7-3.8 8.7-5.7 18.1-5.7 28.2 0 9.8 1.9 19.1 5.7 27.7 3.8 8.7 8.9 16.3 15.3 22.7 6.4 6.7 14 11.9 22.7 15.6 8.7 3.6 18.1 5.5 28.2 5.5zM313.4 467.1c2.8 0 5.5 0.6 8 1.7s4.8 2.7 6.7 4.6c2 1.7 3.4 3.8 4.4 6.3s1.5 5.2 1.5 8c0 3.1-0.6 5.9-1.7 8.4s-2.5 4.6-4.2 6.3c-2 2-4.2 3.5-6.7 4.6s-5.2 1.7-8 1.7-5.5-0.6-8-1.7-4.8-2.7-6.7-4.6c-1.7-1.7-3.1-3.8-4.2-6.3s-1.7-5.3-1.7-8.4c0-2.8 0.6-5.5 1.7-8s2.5-4.6 4.2-6.3c2-2 4.2-3.5 6.7-4.6s5.2-1.7 8-1.7zM775.4 514.9c15.4 0 29.8-2.9 43.2-8.6 13.4-5.8 25.2-13.7 35.3-23.8s18-21.9 23.8-35.3c5.8-13.5 8.6-27.9 8.6-43.2v-168.6h-405.6v168.5c0 15.4 2.9 29.8 8.6 43.2 5.8 13.4 13.7 25.2 23.8 35.3s21.9 18 35.3 23.8c13.4 5.8 27.9 8.6 43.2 8.6 0.5 0 1.2 0 2.2 0s1.7 0 2.2 0c-7.2 6.2-13.7 13.1-19.5 20.5s-10.8 15.5-15.1 24.1c-3.9 8.6-7 17.8-9.4 27.4s-3.6 19.5-3.6 29.5c0 18.7 3.6 36.3 10.8 52.6s16.8 30.7 28.8 43.2c12.5 12 26.9 21.5 43.2 28.5s33.9 10.4 52.6 10.4c18.3 0 35.7-3.5 52.2-10.4 16.6-7 30.9-16.5 42.9-28.5 12-12.5 21.6-26.9 28.8-43.2s10.8-33.9 10.8-52.6c0-10.1-1.1-19.9-3.2-29.5-2.2-9.6-5.4-18.7-9.7-27.4-4.3-8.6-9.4-16.7-15.1-24.1-5.8-7.5-12.3-14.3-19.5-20.5 1 0 1.8 0 2.5 0s1.5 0.1 1.9 0.1zM842.5 279.2v124.7c0 9.1-1.8 17.8-5.4 25.9-3.6 8.2-8.3 15.1-14.1 20.9-6.2 6.2-13.5 11-21.6 14.4-8.2 3.4-16.8 5-25.9 5h-183.8c-9.1 0-17.8-1.7-25.9-5-8.2-3.4-15.1-8.2-20.9-14.4-6.2-5.8-11.2-12.7-14.8-20.9s-5.4-16.8-5.4-25.9v-124.7h317.8zM683.9 707.3c-12.5 0-24.3-2.4-35.3-7.2-11.1-4.8-20.7-11.3-28.8-19.5-8.2-8.2-14.7-17.8-19.5-28.8-4.8-11.1-7.2-22.8-7.2-35.3s2.4-24.3 7.2-35.3c4.8-11.1 11.3-20.7 19.5-28.8 8.2-8.2 17.8-14.7 28.8-19.5s22.8-7.2 35.3-7.2 24.1 2.4 35 7.2c10.8 4.8 20.5 11.3 29.2 19.5 8.2 8.2 14.5 17.8 19.1 28.8s6.8 22.8 6.8 35.3-2.3 24.3-6.8 35.3c-4.6 11-10.9 20.7-19.1 28.8-8.6 8.2-18.4 14.6-29.2 19.5-10.8 4.8-22.5 7.2-35 7.2z" />
<glyph unicode="&#xe611;" d="M510.4 750.6c-174.7 0-316.2-141.6-316.2-316.3s141.6-316.2 316.2-316.2v0 632.5z" />
<glyph unicode="&#xe612;" d="M520.4 108.1h-10c-87.1 0-169.1 33.9-230.7 95.5s-95.6 143.5-95.6 230.7c0 87.1 33.9 169.1 95.6 230.7 61.6 61.6 143.5 95.6 230.7 95.6h10v-652.5zM500.4 740.5c-78.1-2.5-151.1-34.1-206.6-89.5-57.8-57.8-89.7-134.8-89.7-216.6s31.9-158.7 89.7-216.6c55.5-55.5 128.5-87.1 206.6-89.5v612.2z" />
<glyph unicode="&#xe613;" d="M826.7 434.4c0 174.7-141.6 316.3-316.3 316.3v-632.5c174.7-0.1 316.3 141.5 316.3 316.2z" />
<glyph unicode="&#xe614;" d="M510.4 108.1h-10v652.5h10c87.1 0 169.1-33.9 230.7-95.6s95.6-143.6 95.6-230.7c0-87.2-33.9-169.1-95.6-230.7-61.6-61.6-143.5-95.5-230.7-95.5zM520.4 740.5v-612.2c78.1 2.5 151.1 34.1 206.6 89.5 57.8 57.8 89.7 134.7 89.7 216.6 0 81.8-31.9 158.7-89.7 216.6-55.5 55.4-128.5 87-206.6 89.5z" />
<glyph unicode="&#xe615;" d="M98.4 785h830.8v-596h-830.8v596z" />
<glyph unicode="&#xe616;" d="M522 372c-88.4 0-158.6 47-203.2 136-32.4 65-39.6 129-39.8 131.8l39.8 4.2c0-0.6 6.8-60.4 36.4-119 37.8-75 94-113 166.8-113s126.2 38 158.6 112.8c25.2 58.4 27.8 117.2 28 117.8l40-1.6c-0.2-2.8-3-67-31.2-132-38.8-89.6-106.4-137-195.4-137z" />
<glyph unicode="&#xe617;" d="M656.9 711.3c9 0.1 18.6-0.4 28.9-1.3 62.4-5.7 135-62.3 144.6-171.7l0.3-36.4c-7.5-104.9-85.7-234.7-315.8-398.5-232.4 160.5-312.4 289.2-321.3 394l-0.3 36.4c8 109.6 79.8 167.2 142.1 173.7 10.2 1.1 19.8 1.6 28.8 1.7 72.1 0.5 106.9-30.4 146.9-77.3 39.3 47.5 73.7 78.9 145.8 79.4z" />
<glyph unicode="&#xe618;" d="M559.2 769.1v-286.1h275.2v-73h-275.2v-288.6h-77.9v288.6h-275.2v73h275.2v286.1h77.9z" />
<glyph unicode="&#xe619;" d="M618.3 433.3l171-171-96.9-96-170.1 170.1-9.3 8.4-178.6-178.5-96.9 96 179.4 179.4-179.3 179.5 96.9 96 178.5-178.6 179.4 178.6 96.9-96-179.4-179.5 8.4-8.4z" />
<glyph unicode="&#xe61a;" d="M509.3-47.6c-67.2 0-132.4 13.2-193.8 39.1-59.3 25.1-112.6 61-158.3 106.7-45.6 45.6-81.5 98.8-106.7 158.3-25.9 61.4-39.1 126.6-39.1 193.8s13.2 132.4 39.1 193.8c25.1 59.3 61 112.6 106.7 158.3 45.6 45.6 98.8 81.5 158.3 106.7 61.4 25.9 126.6 39.1 193.8 39.1 67.1 0 132.3-13.2 193.8-39.1 59.3-25.1 112.6-61 158.3-106.7s81.6-99 106.7-158.3c25.9-61.4 39.1-126.6 39.1-193.8s-13.2-132.4-39.1-193.8c-25.1-59.3-61-112.6-106.7-158.3s-99-81.6-158.3-106.7c-61.4-25.9-126.6-39.1-193.8-39.1zM509.3 928.2c-64.5 0-127.1-12.6-186-37.5-57.1-24.2-108.2-58.7-151.9-102.5-43.9-43.9-78.4-95-102.5-151.9-24.9-58.9-37.5-121.5-37.5-186s12.6-127.1 37.5-186c24.2-57.1 58.6-108.2 102.5-151.9 43.9-43.9 95-78.4 151.9-102.5 58.9-24.9 121.5-37.5 186-37.5s127.1 12.6 186 37.5c56.9 24.1 108 58.6 151.9 102.5s78.4 95 102.5 151.9c24.9 58.9 37.5 121.5 37.5 186s-12.6 127.1-37.5 186c-24.1 56.9-58.6 108-102.5 151.9s-95 78.4-151.9 102.5c-59 24.9-121.6 37.5-186 37.5z" />
<glyph unicode="&#xe61b;" d="M864 832l-480-480-224 224-160-160 384-384 640 640z" />
<glyph unicode="&#xe61c;" d="M384 34l-398 398 174 174 224-224 480 480 174-174-654-654zM42.4 432l341.6-341.6 597.6 597.6-117.6 117.6-480-480-224 224-117.6-117.6z" />
<glyph unicode="&#xe61d;" d="M728.2-136.2l58.4 148.2c15.4 39 25.8 78.2 30.8 116.2 9 69.8-0.8 129.8-29.2 177.8-23.6 40-60.2 71.4-109 93.2-54.8 24.4-125.2 36.8-209.4 36.8-4 0-8 0-11.8 0v-268l-408 408 408 408v-262.4c4.2 0 8.4 0 12.4 0 214.6 0 368.8-82.6 434.4-232.8 64-146.4 32-336.4-83.4-496.2l-93.2-128.8zM469.8 476c89.8 0 165.8-13.6 225.8-40.4 56.4-25.2 99.2-62 127-109.4 30.2-51.4 42.6-113.2 36.4-184 14.4 35.4 25 71.8 31.2 107.8 14 80.4 6.2 157.6-22.2 222.8-58.8 134.6-200 208.8-397.6 208.8-7.2 0-14.6 0-21.6-0.2l-30.8-0.6v206.8l-311.6-311.6 311.6-311.6v210.8l29.4 0.6c7.6 0.2 14.8 0.2 22.4 0.2z" />
<glyph unicode="&#xe61e;" d="M408.8-8l-123.6 217.2-268.8 108.2 935.2 623.6-154-944-310.2 127.4-78.6-132.4zM469 179.6l294-120.8 128.8 789.4-781.4-521.2 205.6-82.6 93.6-164.8 59.4 100zM905.588 909.453l32.221-29.964-621.208-668.004-32.221 29.964 621.208 668.004zM873.429 835.116l37.462-23.078-413.935-671.925-37.462 23.078 413.935 671.925z" />
<glyph unicode="&#xe61f;" d="M288.4 592.5v-421.4c0-23.2 19-42.1 42.1-42.1h379.3c23.2 0 42.1 19 42.1 42.1v421.4h-463.5zM414.9 213.3h-42.1v295h42.1v-295zM499.2 213.3h-42.2v295h42.1v-295h0.1zM583.4 213.3h-42.1v295h42.1v-295zM667.7 213.3h-42.1v295h42.1v-295zM762.5 719h-137v52.7c0 17.4-14.2 31.6-31.6 31.6h-147.4c-17.4 0-31.6-14.2-31.6-31.6v-52.7h-137c-17.4 0-31.6-14.2-31.6-31.6v-52.7h547.8v52.7c0 17.3-14.2 31.6-31.6 31.6zM583.4 719h-126.4v41.6h126.4v-41.6z" />
<glyph unicode="&#xe620;" d="M749 765h-531.8v-607.8h607.8v531.8l-76 76zM521.1 689h76v-151.9h-76v151.9zM749 233.2h-455.8v455.8h38v-189.9h341.8v189.9h44.5l31.5-31.5v-424.3z" />
<glyph unicode="&#xe621;" d="M753 815.8c-6.6 6-13.4 11-19.8 15.8-9.6 7.2-42.2-97.2-221.2-97.2-191.6 0-221.2 96.8-221.2 96.8s-13-9.6-19.8-15.6c-52.8-44.8-120.4-130-147.2-279.4 14.8-6.2 131-54.8 131-54.8 4-1.8 6.8-5.8 6.8-10.6 0 0 0-350.6 0-372 20.2 0 480.2 0 500.4 0 0 21.4 0 372 0 372 0 4.6 2.8 8.8 6.8 10.6 0 0 116.4 48.6 131 54.8-26 149.6-93.6 234.8-146.8 279.6z" />
<glyph unicode="&#xe622;" d="M400.4 219l-86.2-24.4 24.4 86.8 61.8-62.4zM649.4 468l-221.4-221.4-61.8 62.4 221.2 221.2 62-62.2zM677 495.6l-61.8 62.4 55.4 55.4 61.8-62.4-55.4-55.4z" />
<glyph unicode="&#xe623;" d="M328.3 191.2l-136.7-38.6 38.8 137.5 97.9-98.9zM723.1 585.3l-351-350.3-97.9 98.9 350.9 350.3 98-98.9zM766.9 629.1l-97.8 98.9 87.7 87.6 97.9-98.9-87.8-87.6z" />
<glyph unicode="&#xe624;" d="M559.5 735.5c1-30-21-54-56-54-31 0-53 24-53 54 0 31 23 55 55 55 33 0 54-24 54-55zM461.5 115.5v484h88v-484h-88z" />
<glyph unicode="&#xe625;" d="M652.4 786.5c23.6 0 45.8-4.5 66.7-13.5 20.8-9 38.8-21.1 54-36.3 15.7-15.8 28.1-34 37.1-54.8s13.5-43 13.5-66.7c0-23.6-4.5-45.9-13.5-66.7s-21.1-38.8-36.3-54c-15.8-15.8-34-28.1-54.8-37.1s-43-13.5-66.7-13.5c-4.5 0-8.9 0.3-13.1 0.8-4.2 0.6-8.6 1.1-13.1 1.7-3.9 1.1-8 2.1-12.2 3s-8.3 1.8-12.2 3l-70-67.5h-0.8l-77.6 7.6v-70.9l-3.4-5.1-81 10.1 4.2-85.2-5.1-6.8h-58.2l-3.4-52.3h-103v96.2l286 286c-1.1 3.9-2.3 8-3.4 12.2s-2 8.6-2.5 13.1c-1.1 3.9-1.8 8.1-2.1 12.7-0.3 4.5-0.4 8.7-0.4 12.7 0 23.6 4.5 45.8 13.5 66.7 9 20.8 21.1 39.1 36.3 54.8 15.7 15.2 34 27.3 54.8 36.3 20.9 9 43.1 13.5 66.7 13.5zM731.7 635.5c3.9 3.9 6.9 8.6 8.9 13.9s3 10.5 3 15.6c0 5.6-1 11-3 16-2 5.1-4.9 9.6-8.9 13.5-4.5 3.9-9.3 7-14.3 9.3-5.1 2.2-10.1 3.4-15.2 3.4-5.6 0-11-1.1-16-3.4-5.1-2.3-9.6-5.4-13.5-9.3-4.5-3.9-7.7-8.4-9.7-13.5s-3-10.4-3-16c0-5.1 1-10.3 3-15.6 2-5.4 5.2-10 9.7-13.9 3.9-3.9 8.4-6.9 13.5-8.9s10.4-3 16-3c5.1 0 10.1 1 15.2 3 5 2 9.8 4.9 14.3 8.9z" />
<glyph unicode="&#xe626;" d="M552.9 184.7c12.2 1.7 24.3 4 36.3 6.8 12 3.4 23.5 7.4 34.6 12s22.1 10 32.9 16.2c10.8 6.3 21.1 13.1 30.8 20.5s18.8 15.4 27.3 23.9 16.7 17.5 24.3 26.9c7.7 9.4 14.7 19.2 20.9 29.5l47.8-28.2c-7.4-12.5-15.5-24.6-24.3-36.3s-18.4-22.6-28.6-32.9-21.2-19.8-32.9-28.6-24.1-17-37.2-24.3c-13.1-8-26.5-14.8-40.1-20.5-13.7-5.7-27.6-10.2-41.9-13.7-13.7-4-27.9-6.8-42.7-8.5s-29.6-2.6-44.4-2.6c-13.7 0-26.9 0.6-39.7 1.7s-25.2 3.1-37.2 6c-12.5 2.8-24.8 6.4-36.7 10.7s-23.6 9.2-35 14.9c-12 5.7-23.2 12-33.7 18.8s-20.6 14.2-30.3 22.2c-9.7 7.4-18.9 15.7-27.8 24.8-8.8 9.1-17.2 18.8-25.2 29l-74.3-44.4v228.1l197.3-115.3-72.6-41c6.3-7.4 13.1-14.5 20.5-21.4 7.4-6.8 15.1-13.4 23.1-19.6 8-5.7 16.2-11.3 24.8-16.7 8.5-5.4 17.4-10.1 26.5-14.1 9.7-4.6 19.2-8.4 28.6-11.5s19.2-5.8 29.5-8.1c9.7-2.3 19.8-4 30.3-5.1s21.2-1.7 32-1.7c12.5-0.1 24.8 0.8 37.1 2.5zM854.8 719.4v-228.1l-197.3 115.3 73.5 41c-6.8 7.4-14 14.5-21.4 21.4-7.4 6.8-15.1 13.4-23.1 19.6-8 5.7-16.2 11.2-24.8 16.7-8.5 5.4-17.4 10.1-26.5 14.1-9.7 4.6-19.2 8.4-28.6 11.5s-19.2 5.8-29.5 8.1c-9.7 2.3-19.8 4-30.3 5.1s-20.9 1.7-31.2 1.7c-12 0-23.8-0.6-35.4-1.7-11.7-1.1-22.9-3.1-33.7-6-10.8-2.3-21.5-5.4-32-9.4s-20.6-8.5-30.3-13.7c-10.2-5.1-19.9-10.8-29-17.1s-17.7-12.8-25.6-19.6c-8.6-7.3-16.6-15.3-24-23.8s-14.5-17.4-21.4-26.5l-47.8 28.2c7.4 11.4 15.5 22.1 24.3 32 8.8 10 18.1 19.5 27.8 28.6 10.3 9.1 20.9 17.5 32 25.2s22.6 14.9 34.6 21.8 24.3 12.7 37.2 17.5c12.8 4.8 26.1 9 39.7 12.4 13.1 3.4 26.6 5.8 40.6 7.3 13.9 1.4 28.3 2.1 43.1 2.1 13.1 0 26.1-0.6 38.9-1.7s25.5-3.1 38-6c12-2.9 23.9-6.4 35.9-10.7s23.6-9.3 35-14.9c12-5.7 23.2-12 33.7-18.8s20.6-14.2 30.3-22.2c9.7-7.4 18.9-15.7 27.8-24.8 8.8-9.1 17.2-18.5 25.2-28.2l74.3 42.7v0.9z" />
<glyph unicode="&#xe627;" d="M676.3 723.6c-4.4 3.7-8.9 7-13.2 10.1-6.5 4.6-28.1-61.8-147.4-61.8-127.7 0-147.4 61.6-147.4 61.6s-8.7-6.1-13.1-9.9c-35.2-28.6-80.3-82.7-98.1-177.6 9.9-3.9 87.3-34.9 87.3-34.9 2.7-1.1 4.6-3.7 4.6-6.7 0 0 0-222.9 0-236.5 13.5 0 319.8 0 333.3 0 0 13.6 0 236.5 0 236.5 0 3 1.9 5.6 4.6 6.7 0 0 77.5 30.9 87.3 34.9-17.5 94.9-62.6 149-97.9 177.6zM527.6 217.9l69.1-40.4-69.5-39.7-69.6-39.6 0.4 80.1 0.5 80.1zM509.3 167.1c-100.2 0-194.6 14-265.6 39.5-34.7 12.5-62.1 27.1-81.5 43.5-20.7 17.5-31.1 36.3-31.1 55.9s10.5 38.4 31.1 55.9c19.2 16.3 46.6 30.9 81.5 43.4 71 25.5 165.3 39.5 265.6 39.5 100.2 0 194.6-14 265.6-39.5 34.6-12.3 62.1-26.9 81.5-43.4 20.7-17.5 31.1-36.3 31.1-55.9s-10.5-38.4-31.1-55.9c-19.1-16.3-46.5-30.9-81.5-43.5-71-25.5-165.4-39.5-265.6-39.5zM509.3 424.8c-98 0-189.9-13.6-258.8-38.3-32.6-11.7-57.9-25.1-75.3-39.8-16-13.5-24.1-27.2-24.1-40.7s8.1-27.1 24.1-40.7c17.5-14.8 42.9-28.3 75.3-39.9 68.9-24.7 160.8-38.3 258.8-38.3s189.9 13.6 258.8 38.3c32.7 11.7 58 25.1 75.3 39.9 16 13.5 24.1 27.2 24.1 40.7s-8.1 27.1-24.1 40.7c-17.6 14.9-42.9 28.3-75.3 39.8-68.9 24.7-160.8 38.3-258.8 38.3z" />
<glyph unicode="&#xe628;" d="M569.4 273.8c-9.2 0-18.8 0.4-28.2 1-75.6 5.2-143.4 19.6-201.6 43-67.8 27.2-120.6 65.6-156.8 114.6-6.8 6.2-108.6 100.8-128.4 141.4l-3.8 7.6 7.8-3.6c0.4-0.2 31.6-14.6 75.4-14.6 32 0 62.6 7.6 90.8 22.8l0.4 0.2h0.4l93 19.8c2.4 0.8 30.6 9 66.4 9 24.4 0 46.2-3.8 65.2-11.4l58.6-23.4 77.8 27.4c0.4 0 11.6 1.6 29 1.6 23.6 0 59-3 93.8-16.8 84.8-34 150.8-51.2 196.2-51.2 17.8 0 32.4 2.8 43.2 8l9.6 4.6-5.6-9c-0.6-1-60.2-94.8-68.8-113.6-4.4-9.4-34.8-48.6-88.6-85.8-47.2-32.8-124.6-71.6-225.8-71.6zM63.8 568.8c27.2-43.4 122.2-131.4 123.2-132.4l0.4-0.4c35.6-48.2 87.4-86 154.4-112.8 57.6-23 124.8-37.4 199.8-42.4 9.2-0.6 18.6-1 27.6-1 99.6 0 176 38.2 222.6 70.4 49.8 34.4 81.8 73 86.6 83.4 7.6 16 49.6 83.2 64.2 106.4-43.6-14.4-123.4 1.6-235.6 46.6-33.8 13.6-68.6 16.4-91.6 16.4-15.4 0-26-1.2-27.8-1.6l-79.2-27.8-60.6 24.4c-18.2 7.4-39.4 11-63 11-35.8 0-64.6-8.6-64.8-8.8h-0.2l-92.8-19.8c-29-15.4-60.4-23.2-93.4-23.2-32.2-0.4-57.4 7-69.8 11.6zM537.2 466.6c-27.8 0-48 4.2-62.4 7.8l1.4 5.8c14.2-3.6 33.8-7.6 61-7.6 21.8 0 45 2.6 71 7.8 42 8.4 75.4 10.6 114 13.4 31 2.2 66 4.6 111 10.6h0.4c0.6 0 63.2 0.8 95 36.4 0.2 0.2 0.2 0.4 0.4 0.8l0.6 1.2 1.4 0.2c6.6 1.4 12.6 3.2 17.6 5.8l9.6 4.6-5.6-9c-0.2-0.2-17.4-27.4-34.6-55.2l-5.2 3.2c11.6 18.8 23.2 37.4 29.6 47.4-2.8-1-5.8-1.8-8.8-2.4v-0.2l-0.2-0.4c-17.6-19.8-43.8-29.2-62.8-33.8-19.4-4.6-34.8-5-36.8-5-45.2-6-80.4-8.4-111.4-10.6-38.4-2.6-71.6-4.8-113.2-13.2-26.2-5.2-49.8-7.6-72-7.6zM96.4 518.6l-2 2.2c-20.8 23-34.4 40.8-40.2 52.6l-3.8 7.8 7.8-3.6c0.2 0 11-5.2 28.6-9.2l5-1.2-3.4-3.8c-0.2-0.2-0.4-0.6-0.6-0.8l-1.2-1.8-2 0.4c-3.8 0.8-6 1.4-6 1.4l0.4 1.6c-6.2 1.6-11.4 3.4-15.2 4.8 5.8-9.4 15.4-21.6 28.4-36.4v0c1 0 2 0 8.4-5.4l2.4-2-2.2-2.2c-0.4-0.4-1.2-1.2-2.2-2l-2.2-2.4zM475.6 474l-0.8 0.2c-4.6 1.2-8.8 2.4-13 3.4-9.8 2.6-18.2 5-26 5.6-29.2 2-74.6 7.8-230.2 32.2-74.8 11.6-116.4 25.2-123.4 40.2-1.6 3.4-1.4 7 0.4 10l1.2 1.8 2.2-0.4c10.8-2.4 37.8-8 53.6-8 3.6 0 6.4 0.2 8.4 0.8 4.2 1.2 11.6 3.4 24 6.8h0.2c8.2 1.6 16.4 3.8 24.4 6.6l2-5.6c-8.2-2.8-16.6-5.2-25-6.8-12.4-3.4-19.6-5.4-23.8-6.6-2.4-0.8-5.8-1.2-10-1.2-15 0-38.2 4.4-52.4 7.6 0-0.8 0.2-1.6 0.6-2.4 2.8-6 19.8-21.4 118.8-36.8 155.4-24.2 200.6-30 229.8-32 8.4-0.6 17-3 27.2-5.8 3.8-1 7.8-2.2 12-3.2v0 0c0.2 0 0.6-0.2 0.8-0.2l-0.4-1.2 1.4-4.2-2-0.8zM682.6 413.6c-2.4 0-9.6 0-11.2 4.8-0.4 1-0.6 2.6 0.4 4.6 4.2 8.8 29.4 20.8 52.4 29 20.2 7.2 39.8 11.6 51 11.6 2.4 0 9.6 0 11.4-4.8 1.6-4.6-3-9.8-14.8-16.6-9.8-5.8-23.4-11.8-38-17-20.6-7-40.2-11.6-51.2-11.6zM677 420.4c0.6-0.2 2-0.8 5.6-0.8 10.4 0 29.2 4.4 49 11.2 31 10.8 47.6 22.2 49 26-0.6 0.2-2 0.8-5.6 0.8-10.4 0-29.2-4.4-49-11.2-31-11-47.6-22.2-49-26z" />
<glyph unicode="&#xe629;" d="M790.6 322.4c-8.2 0-16.4 0.4-24.6 1-109 8.4-202 70.2-253.8 126.4-51.8-56-144.8-118-253.8-126.4-8.2-0.6-16.6-1-24.6-1-65.8 0-123 20.8-157 57.2-27 29-39.4 66-36.4 110.4 1.4 22 9.4 44.4 22 61.2 16.8 22.6 40.4 33.6 67.8 31.4 5.6-0.4 10.4-1.6 14.8-3.4 0.2 0 0.6-0.2 0.8-0.4 23.8-6.6 40.2-28.2 40.2-53 0-30.4-24.8-55.2-55.2-55.2-23.8 0-44.8 15.4-52.2 37.4-4-18.2-0.8-38 9.2-55.4 10.4-18.2 26.4-30.6 42.6-33.6 6-1 12.2-1.6 18-1.6 54.8 0 93 45 133.4 92.8 37.4 44 76 89.6 129.6 97.8 7.2 1.2 14.4 1.6 21.4 1.6 30.4 0 58.4-10.6 79.2-30 20.8 19.4 48.8 30 79.2 30 7 0 14.2-0.6 21.4-1.6 53.6-8.2 92.2-53.8 129.6-97.8 40.4-47.6 78.6-92.8 133.4-92.8 5.8 0 12 0.6 18 1.6 16.2 2.8 32.2 15.4 42.6 33.6 10 17.4 13.2 37.2 9.2 55.4-7.4-22-28-37.2-52.2-37.2-30.4 0-55.2 24.8-55.2 55.2 0 24.6 16.6 46.4 40.2 53v0l0.6 0.2c4.4 1.8 9.2 3 15 3.4 2.4 0.2 4.6 0.2 7 0.2 56.2 0 80.4-55.6 82.8-92.8 3-44.2-9.2-81.4-36.2-110.4-34-36.4-91-57.2-156.8-57.2zM512.2 458.6l2.2-2.4c50.4-55.8 143.2-118.4 252-126.8 8-0.6 16.2-1 24.2-1 64 0 119.6 20.2 152.4 55.2 25.8 27.8 37.6 63.4 34.6 105.8-1.4 21-9 42.2-20.8 58-10 13.4-27.6 29.2-56 29.2-2.2 0-4.2 0-6.4-0.2-4.8-0.4-9-1.2-12.6-2.8l-0.4-0.4-0.8-0.2c-21.6-5.8-36.6-25.4-36.6-47.6 0-27.2 22-49.2 49.2-49.2 24.6 0 45 17.6 48.6 41.6l0.2 1 0.6 0.6c0.2 0.4 0.4 0.6 0.8 1l3.2 3.2 1.6-4.4c8.4-22.4 6-48-6.8-70.2-11.2-19.6-28.8-33.4-46.8-36.4-6.4-1.2-12.8-1.6-19-1.6-57.6 0-98.6 48.2-138 94.8-36.6 43.2-74.6 88-126 95.8-7 1-13.8 1.6-20.6 1.6-29.8 0-57.2-10.8-77-30.4l-2.2-2-2.2 2c-20 19.6-47.2 30.4-77 30.4-6.8 0-13.6-0.6-20.6-1.6-51.4-7.8-89.2-52.6-126-95.8-39.6-46.6-80.4-94.8-138-94.8-6.2 0-12.6 0.6-19 1.6-18 3.2-35.4 16.8-46.8 36.4-12.8 22.2-15.2 47.8-6.8 70.2l1.2 3.2 3-1.4c1-0.4 1.4-1.2 1.6-1.6l0.4-0.4 0.2-1c3.6-23.8 24.6-41.6 48.6-41.6 27.2 0 49.2 22 49.2 49.2 0 22.4-15 41.8-36.6 47.4l-2.2 0.6v0.4c-3.4 1.2-7.2 2-11.4 2.4-2 0.2-4.2 0.2-6.2 0.2-28.4 0-46.4-16-56.4-29.2-11.8-15.6-19.6-37.4-20.8-58-2.8-42.6 8.8-78.2 34.8-105.8 32.8-35.2 88.4-55.2 152.6-55.2 8 0 16.2 0.4 24.2 1 108.8 8.4 201.6 71 252 126.8l2.6 2.4z" />
<glyph unicode="&#xe62a;" d="M690.53 503.719c-52.539 34.515-108.53 51.389-164.904 51.389-57.142 0-114.283-17.641-167.59-52.539v128.855h332.494v-127.705z" />
<glyph unicode="&#xe62b;" d="M690.53 392.281c-52.539-34.515-108.53-51.389-164.904-51.389-57.142 0-114.283 17.641-167.59 52.539v-128.855h332.494v127.705z" />
<glyph unicode="&#xe62c;" d="M800.8 622c0-63.4-25.2-114.2-75.4-152.4-32.6-24.6-86.4-49.4-161.8-74.4-12.6-5.2-25.4-10.2-38.6-15.4-15.4-5.8-28.8-8.6-40.2-8.6-8 0-19.8 0.8-35.6 2.6s-27.6 2.6-35.6 2.6c1.8-10.8 3.6-22 5.6-33.4s9.2-17.6 21.8-18.8c81.6 21.6 139.8 32.6 174.6 32.6 32 0 60.4-8.2 85.6-24.8 29.2-19.4 43.6-44.2 43.6-74.4 0-39.4-10.2-78.2-30.8-116.4-23.4-44-52.8-68.2-88.2-72.8-8 3.4-21.4 15.2-40.2 35.2s-29.2 34-30.8 42c48 24 77 75 87.4 153.2-9.2 10.8-24.6 16.2-46.2 16.2-10.2 0-19.8-0.8-28.6-2.2s-21-2.8-36.4-3.8c-12-1.8-30.2-6.6-54.8-14.6-26.2-9.2-42-16.8-47-23.2-4-4-6-18-6-42 0-16.6-5.8-39.6-17.2-69.4-6.8-2.8-17.4-6.6-31.6-11.2-24 4-36 21.4-36 52.2 0 9.6 2 19.6 6 30-4.6 4.6-9.2 6.8-13.6 6.8-4 0-9.6-0.6-16.6-1.8-7.2-1.2-12.4-1.8-15.8-1.8-18.2 0-35.4 4.6-51.4 13.6-17.6 10.8-26.6 25.2-26.6 42.8 0 12 7.2 18 21.4 18 4 0 10-1.6 18-4.8s14.2-4.8 18.8-4.8c10.2 0 22.6 1.4 36.8 4.2 5.6 0 14.2 1.6 25.6 4.8s20 13.2 25.6 30.4c6.8 22.2 12 35.6 15.4 40.2-6.2 3.4-18.6 8.2-36.8 14.6-16 4.6-28 10.2-36 17.2-12 9.2-26 23.2-42 42-21.6 25.6-34.6 40.6-38.6 44.6-10.2 8-23.6 21.6-40.2 41-4.6 5.6-6.8 11.6-6.8 18 0 41 23.2 87.4 69.8 139.2 46.6 51.6 90 79.4 130.6 83.4 1.2 1.2 2.2 1.8 3.4 1.8 9.6 0 14.6-8 14.6-24 0-17.2-21.6-44.6-64.6-82.2-43.2-37.6-64.6-64.6-64.6-80.4 0-3.4 0.6-7.2 1.8-11.2 28.6-37.6 48.8-60.8 60.8-69.4 18.2-12.6 47.4-20.6 87.4-24 43.4-3.4 68.4-5.2 75.4-5.2 31.4 0 66.8 9.8 106.2 29.6 39.4 19.6 68.2 42 86.4 67.2 10.2 14.2 18.6 30.8 24.8 49.6 9.6 29.2 14.6 50.2 14.6 63.4 0 8-2.4 15.6-7.2 23.2-4.8 7.4-9.6 14.8-14.2 22.2-5.2 12-14 29.4-26.6 52.2-7.4 9.6-21.6 21.6-42.8 35.6-21.4 14.2-37 21.2-47.4 21.2-29.6 0-70-24.8-120.8-74.4l-12 0.8c-5.8 5.2-8.6 9.2-8.6 12 0 0.6 0.2 1.8 0.8 3.4 9.6 23.4 28.2 42.6 55.6 57.4 25.2 13.6 51 20.6 78 20.6 20 0 41.6-4.6 64.6-13.6 23.2-9.2 41.2-20.6 54.4-34.2 5.2-8.6 14-20.2 26.6-35.2 9.2-7.4 22.2-18.8 39.4-34.2 9.2-10.2 17.2-30.8 24-61.6 5.8-26 8.8-48.2 8.8-67zM621 615.2l-4.2-7.8c-4 1.2-8 1.8-12 1.8-5.8 0-17.2-2-34.6-6s-26.6-7.2-27.8-9.4c-1.2-2.2-1.8-5.4-1.8-9.4 0-1.2 1.8-5.8 5.6-14.2 3.8-8.2 5.2-14.8 4.8-19.2v-4.2c-2.8-2.2-8.8-6-18-11.2h-2.6c-12.6-0.6-21.6 9.2-27.4 29.2s-17.6 30-36 30c-2.8 0-7.2-0.4-12.8-1.2-5.8-0.8-9.8-1.2-12-1.2-34.2 0-51.4 20.8-51.4 62.4 0 13.6 7.2 20.6 21.4 20.6 3.4 0 6.8-0.8 10.2-2.6 1.8 0.6 4 0.8 6.8 0.8 4.6 0 10.8-0.8 18.8-2.6s14-2.6 18-2.6c7.4 0 14 3.4 19.6 10.2-2.2 21.6-3.4 33-3.4 34.2 0 9.2 3.6 17.2 10.8 24.4s15.2 10.8 24.4 10.8c13.2 0 21.2-9.8 24-29.2 1.2-5.2 1.8-18.6 1.8-40.2 0-12 10.8-23.4 32.6-34.2 25.4-12.8 40.6-22.4 45.2-29.2z" />
<glyph unicode="&#xe62d;" d="M832.4 507.4c-3.8-2.8-8-9.6-12.6-20.8s-8.8-18.8-12.6-23.2c-23.8-26.6-73.2-39.8-148-39.8-7.6 0-13.8-1-18.8-3.2-10.8-5.4-18.8-26.8-23.6-64.2-6-45.6-10.8-72.2-14.6-79.6 2.2-2.8 6.2-5.2 12.2-7.4 23.8 0 47.2 4 70 12.2 13.6 4.8 33.6 18.4 60.2 40.6 1 1 3 1.6 5.6 1.6 3.2-1.6 6-3.8 8.2-6.6-0.6 0.6-0.8-4.4-0.8-14.6 0-4.8 3.6-12 10.6-21.2s10.6-19.6 10.6-31c0-25.4-12.4-45.8-37.4-61-21.2-13-45.2-19.6-72.4-19.6-1.6 0-4.2-0.2-7.8-0.8s-6-0.8-7.8-0.8c-29.2 0-46.6-3.8-52-11.4l-17.8 1.6c-13 0-30.4-10.4-52-31.4-21.6-20.8-44-31.4-66.6-31.4-6.6 0-10.6 0.2-12.2 0.8-4.8 1.6-12 6-21.2 13-10.8 8.2-18.2 13-22 14.6-12 3.8-26.8 11.4-44.8 22.8v5.6c0 1.6 9.8 6.4 29.6 14.2s35 18.2 46 31.4c-18.4 9.8-38.6 26.8-60.6 51.2s-36.8 46-44.4 65c-0.6 0.6-4 14.4-10.6 41.4-4.8 19.6-10.4 31.2-16.2 35-10.4 5.4-29.2 8.6-57 9.8-33.6 1-58.8 3.8-75.6 8.2-31 8.2-58.2 24.2-82.2 48v5.6c4.8 2.8 11.2 4 18.8 4 6 0 13.6-1.6 22.8-4.8 12.4-3.8 20.4-6 23.6-6.6 27.2-4.8 50.4-7.4 70-7.4 40.6 0 68.6 7.6 83.8 22.8 7 7 11.6 20.4 13.8 39.8 1.6 14.6 3.2 29.6 4.8 44.8 10.8 47.6 31.4 91.8 61.8 132.2s67 71.4 109.8 93.2c35.2 17.4 63.2 26 83.8 26 4.4 0 8.6-0.2 13-0.8 1.6 0.6 3.6 0.8 5.6 0.8 6 0 11.4-2.2 16.2-6.6s7.4-9.2 7.4-14.6c0-35.2-19.8-67.4-59.4-96.8-33-22.2-66.4-44.4-100-66.6-32.6-27.2-57.2-58.2-74-93.6-6.6-13.6-9.8-26-9.8-37.4 0-13 3.8-20.8 11.4-23.6 3.2-1.6 12.4-2.4 27.6-2.4 21.2 0 46.8 2.2 77.2 6.6 33.6 4.8 58 10.6 73.2 17 9.8 4.4 15.8 17.8 17.8 40.6 1.6 20.6 5.6 31 12.2 31 4.8 0 12.8-7.6 23.6-22.8s20.4-22.8 28.4-22.8c12 0 30.4 5.4 55.2 16.2 25 10.8 44 16.2 57 16.2 6.6 0 16.8-5.4 31-16.2 17-12.8 27.6-20.6 32-22.8zM574.6 386.2c0 4.8-0.2 9.8-0.8 14.6-1.6 1.6-4.4 4-8.2 7.4-50.4-8.6-83-13-97.6-13-32 0-54.2-1.6-66.6-4.8-7-1.6-11.4-5.6-13-12.2 3.2-26 19.8-49.8 49.6-71.6 26.6-19.6 54-30.6 82.2-33.4 13.6 10.2 26 27.4 37.4 51.2s17 44.4 17 61.8z" />
<glyph unicode="&#xe62e;" d="M352.129 712.016c0-9.697-1.552-25.083-4.784-45.899-3.232-22.626-6.465-37.107-9.568-43.442-34.521-68.267-68.008-117.398-100.719-147.394-4.267-4.267-16.032-12.412-35.426-24.048-15.644-10.214-25.859-19.265-30.642-27.41-11.248 0-20.687 1.81-28.186 5.56-4.784 5.43-7.24 14.481-7.24 27.41 0 30.642 18.23 77.834 54.691 141.705 35.426 61.156 66.327 102.4 92.574 123.992 14.998 12.412 32.711 18.489 53.139 18.489l8.016-2.457c5.56-9.568 8.145-18.489 8.145-26.505zM276.493 120.113c0-1.034-0.905-3.879-2.844-8.533-1.81-4.655-3.103-7.887-3.491-10.085-9.568-6.465-16.808-9.697-21.851-9.697-6.982 2.198-14.998 4.784-24.048 8.016-16.032 4.784-27.022 12.671-33.099 23.273-4.267 8.016-7.24 21.851-8.792 41.115-2.198 24.048-3.232 39.693-3.232 46.675 0 80.549 12.671 124.897 37.883 132.913 9.18-3.232 15.774-9.438 20.040-18.489 9.18-20.816 17.972-54.303 26.634-99.814 8.533-45.511 12.8-80.808 12.8-105.374zM815.127 340.687c-0.646-0.646-5.43-7.24-14.481-20.040-38.141 11.248-73.568 16.808-106.279 16.808-16.032 0-26.117-0.646-29.867-1.552-11.248-2.586-16.808-9.438-16.808-20.040 0-19.265 4.137-48.485 12.541-87.79s12.541-68.525 12.541-87.79c0-52.105-7.758-83.135-23.273-93.349-3.749-2.198-13.188-4.784-28.186-8.016-12.8-2.198-20.687-5.43-23.273-9.568-9.568 4.784-18.489 13.317-26.634 25.341-8.016 12.024-12.024 23.143-12.024 33.358 0 6.982 2.457 13.964 7.24 20.816 5.818 97.616 8.792 150.368 8.792 157.737 0 5.43-0.517 16.42-1.552 33.099-3.749 5.818-7.628 8.792-11.248 8.792-25.859 0-56.113-6.594-91.022-20.040-29.091-12.412-57.277-24.048-84.945-35.426s-43.83-16.808-48.743-16.808c-13.964 0-29.091 12.671-45.123 37.883 2.198 12.8 7.628 22.626 16.032 29.091 31.030 22.626 105.762 46.675 223.935 72.533 9.18 1.034 22.626 2.457 40.21 4.008 4.784 6.465 7.24 17.196 7.24 32.194 0 2.198 0.517 5.43 1.293 9.568 0.776 4.267 1.293 7.628 1.293 9.697 0 11.248-2.586 18.747-8.016 22.109-5.43 3.491-13.188 6.077-23.273 7.758-8.016 1.034-16.42 2.198-25.083 3.232-13.964 3.232-30.255 11.248-49.131 24.048-24.048 17.196-41.244 33.099-51.588 47.451-12.8 18.23-19.265 40.469-19.265 66.974 0 22.626 9.438 46.675 28.186 72.533 23.014 30.642 52.364 54.82 87.79 72.921 35.426 17.972 72.145 27.022 110.287 27.022 8.663 0 16.808-5.43 25.083-16.032 10.861-14.481 17.713-22.885 21.075-25.083 5.818-1.552 14.739-4.784 26.634-9.697 5.818-3.232 14.481-7.758 25.859-13.705 11.248-5.818 22.626-11.766 33.875-17.325s21.463-13.705 30.642-24.566c-1.034-13.964-8.663-35.297-22.885-64s-21.333-52.234-21.333-70.465c-0.517-1.552-0.776-3.491-0.776-5.56 0-2.198 0.776-5.301 2.457-9.309 1.552-4.008 2.457-7.111 2.457-9.309-6.465-14.481-26.246-26.893-59.604-37.107-48.356-14.998-73.309-22.885-74.99-23.273 4.784-34.909 12.671-55.596 23.273-61.931 3.749 0 9.438 0.259 16.808 0.776 7.628 0 13.188 0 16.808 0 85.333-0.388 131.232-16.291 137.051-47.968zM454.4 116.881c-6.982-15.644-24.695-26.634-53.139-33.099-22.626 4.784-36.202 18.489-41.115 41.115-1.552 20.428-3.232 41.115-4.784 61.931 8.533 10.214 18.877 15.257 30.642 15.257 2.586 0 5.43-0.259 8.016-0.776 1.034-1.552 12.412-14.998 33.875-40.339 13.446-15.257 22.238-30.125 26.505-44.089zM715.313 620.994c-2.198 11.248-12.024 24.566-29.867 39.822-17.713 15.257-31.935 22.885-42.667 22.885-10.214 0-23.661-2.586-40.339-8.016-13.446-4.267-26.634-8.404-39.434-12.024-23.014-5.43-46.158-10.473-69.301-15.257-27.927-9.18-43.313-24.695-45.899-46.675 6.465-27.41 22.238-50.812 47.451-70.465s52.105-29.349 80.549-29.349c11.248 0 26.893 5.042 46.675 15.257 17.196 8.016 31.677 16.808 43.442 26.634 27.152 21.333 43.442 47.063 49.39 77.188zM849.002 160.323c-5.818-10.214-12.8-26.246-21.075-48.356-11.766-6.465-19.006-9.697-21.851-9.697-20.428 0-37.495 11.636-51.588 34.651-9.18 21.463-18.23 42.667-27.41 63.612 0 11.766 9.568 17.713 29.091 17.713 19.265 0 37.883-5.042 55.467-15.257 20.17-11.248 32.582-25.471 37.366-42.667z" />
<glyph unicode="&#xe62f;" d="M257.127 289.084c0-99.745-12.538-163.256-37.335-190.397-2.755 1.654-5.649 2.479-8.542 2.479-3.995 0-9.506-0.551-16.946-1.378s-12.951-1.378-16.946-1.378c-9.092 0-17.634 10.609-25.487 31.412-6.2 18.047-9.369 33.064-9.369 44.913 0 15.293 9.369 48.77 27.967 100.295 17.634 48.77 27.554 90.102 29.758 123.993l5.097 6.75 3.444 2.479c18.737 0 31.963-16.119 39.954-48.357 5.649-20.252 8.404-44.224 8.404-70.814zM914.147 75.817c-2.342-7.439-7.577-14.603-16.119-21.767-8.542-7.027-16.532-10.746-23.835-10.746-23.284 0-44.913 5.924-65.44 17.772-28.794 17.634-54.143 42.019-75.636 73.156-19.976 28.794-39.402 57.449-58.69 85.829-7.853-1.101-26.176-17.91-54.833-50.562s-52.49-48.908-71.778-48.908c-18.599 0-34.581 10.746-47.53 32.238 1.101 3.444 3.582 7.853 7.577 13.639h30.585c20.389 0 38.988 19.563 56.211 58.69 10.196 28.38 20.803 56.622 31.412 85.003-9.092 15.844-30.034 65.165-62.961 147.826-5.649 15.844-11.297 31.412-16.946 46.703-7.439 18.047-16.532 31.963-27.141 41.606-55.521-5.097-108.975-17.772-160.501-38.162-13.639-5.097-34.028-13.777-61.307-26.314-10.746 2.342-18.047 4.27-22.043 5.924-7.853 2.755-13.777 6.75-17.772 11.848 1.654 19.701 23.558 43.947 65.44 72.329 33.477 22.731 64.201 39.402 92.581 50.010 12.538 3.444 24.799 6.75 37.335 10.196 15.844 4.408 27.141 10.196 33.891 16.946-1.101 4.408-4.822 15.293-11.021 32.238-5.097 14.19-7.577 25.212-7.577 33.064 0 1.654 1.654 7.853 5.097 18.737 1.101 1.654 2.479 3.031 4.27 3.72 1.654 0.827 4.547 1.378 8.542 1.378 1.101 0 9.369-10.47 24.661-31.412 16.532-22.731 29.483-36.509 38.988-41.606 6.75 0 16.946 0.551 30.585 1.654s23.835 1.654 30.585 1.654c4.408 0 11.021-0.276 19.563-0.827 8.542 0 14.603 0 18.737 0 23.695 0 49.596-5.373 77.427-16.119 33.891-12.951 51.938-29.207 53.454-48.357-1.654-5.649-6.2-15.293-13.639-28.794-6.75-11.297-10.47-22.457-11.021-33.064-2.755-1.101-8.679-3.582-17.772-7.577l-4.27-0.827c-10.746 0-26.865 3.995-48.082 11.848s-37.887 11.848-49.735 11.848c-27.141 0-40.78-7.027-40.78-21.216 0-22.043 25.487-64.339 76.462-126.61 0.551-0.551 1.515-0.827 2.479-0.827 4.408 0 13.502 6.613 27.141 19.976s22.731 19.976 27.141 19.976c14.19 0 27.554-9.23 39.954-27.691 12.538-18.461 18.737-34.855 18.737-49.735 0-14.19-17.359-40.229-51.938-78.252 5.097-14.19 19.288-35.269 42.433-63.235 23.284-27.967 41.606-47.116 55.107-57.312 7.439-5.649 17.634-9.782 30.585-11.848l12.675 10.196c8.542-3.995 14.19-9.369 16.946-16.119 12.398-30.585 19.425-56.622 21.767-78.115zM508.694 299.278c0-30.034-4.547-53.179-14.052-69.298-9.369-16.119-27.278-29.621-54.006-40.366l-23.835-10.196c-2.755 0-9.506 1.515-19.976 4.27s-18.599 4.27-24.248 4.27c-5.649 0-15.293-1.515-28.794-4.27l-0.827 2.618-3.444 1.654 0.827 1.654c57.312 21.63 85.829 59.791 85.829 114.761 0 24.385-12.538 36.509-37.335 36.509-9.092 0-22.87-6.613-41.193-19.563-18.461-12.951-32.376-19.563-42.019-19.563-12.538 0-21.906 5.373-27.967 16.119 15.293 24.385 35.406 44.361 60.205 59.929s51.251 23.421 79.079 23.421c61.17 0.137 91.754-34.028 91.754-101.949zM863.173 711.484c0-10.196-5.786-20.527-17.497-30.998s-22.87-15.705-33.615-15.705c-20.389 0-37.749 12.675-51.938 38.162-10.746 20.941-21.63 42.019-32.238 62.961l3.444 12.675c32.238 0 59.791-3.995 82.523-11.848 32.79-11.297 49.321-29.758 49.321-55.244z" />
<glyph unicode="&#xe630;" d="M769.719 734.152c0-13.719-2.809-28.93-8.266-45.956-5.951-19.672-13.719-32.732-22.978-39.345-2.809 0-27.939 2.149-75.381 6.613-4.96 0-15.043 1.157-30.417 3.306-12.068 2.149-22.151 3.306-30.417 3.306-38.848 0-75.713-3.637-110.758-10.745-46.948-9.753-79.183-24.631-96.707-44.303-13.060-14.712-30.417-57.197-51.577-127.123-3.306-5.951-7.439-15.375-12.234-27.939-19.176-62.323-28.763-97.864-28.763-106.625 0-5.455 2.479-18.844 7.439-40.17 3.306-14.712 12.564-39.344 27.939-73.73 13.719-30.583 21.656-55.71 23.804-75.381-6.613-23.474-17.192-34.715-31.905-33.558h-3.306c-9.753 5.951-18.844 27.11-27.11 63.147-5.455 25.126-10.911 50.088-16.365 74.554-3.801-6.613-11.241-29.755-22.151-69.762-8.761-32.731-17.854-51.577-27.11-56.535-14.712 5.455-27.11 14.712-37.36 27.939-10.084 13.060-15.208 27.606-15.208 43.477 0 28.434 5.455 60.339 16.365 95.879 0.496 1.157 11.406 31.74 32.732 91.913-0.495 17.523-5.785 37.361-15.541 59.842 3.801 6.613 16.201 8.761 36.864 6.613 6.613 18.515 20.166 43.974 40.997 76.208 25.126 37.691 40.667 62.818 46.783 75.381-3.801 3.801-16.2 5.785-36.864 6.117-20.829 0.33-33.393 1.984-37.691 5.289 3.306 19.176 16.036 34.715 38.517 46.783 19.176 8.266 38.517 16.365 58.189 24.631 8.761 3.801 18.845 10.084 30.417 18.845 11.406 8.761 22.978 22.648 34.385 41.823 13.060 21.325 22.978 35.212 29.426 41.823 13.060 12.564 29.755 19.342 50.088 20.498 1.157 0.496 2.479 1.157 4.133 1.653l3.306-0.827c1.653-1.157 2.976-2.479 4.133-4.133-6.613-9.753-12.895-20.002-18.844-30.417-7.109-12.068-10.745-22.648-10.745-31.905 0-2.149 1.157-4.298 3.306-6.613 66.62 19.176 127.123 28.763 181.179 28.763 65.132 0 97.698-13.060 97.698-39.345zM878.658 322.529c-3.306-4.298-8.761-14.712-16.365-31.078-5.455-12.068-13.886-21.821-25.458-29.59-11.406-7.605-33.558-14.548-66.454-20.498-28.434-5.455-45.13-12.068-50.088-19.672-2.149-3.801-3.637-8.761-4.133-14.712 0-4.298 0.33-10.581 0.827-18.845s0.827-13.060 0.827-14.712c0-17.524-7.934-37.361-23.804-59.843-17.524-23.97-34.716-36.037-51.577-36.037-8.266 0-19.011 4.298-32.4 12.728s-23.638 13.225-30.748 14.382c-8.761 12.564-25.458 28.763-50.088 48.436l0.827 4.96c1.157 0.496 11.406 0.827 31.078 0.827 27.276 0 46.948 5.951 59.015 18.020 8.761 9.258 18.020 28.434 27.939 57.363-2.149 2.809-5.785 5.951-10.581 9.753-5.951-0.496-12.564-0.827-19.672-0.827-118.694 0-177.874 12.564-177.874 37.691 0 2.809 0.827 5.951 2.479 9.919 2.149 1.157 4.96 1.653 8.266 1.653 10.414 0 26.118-2.479 47.113-7.439s36.7-7.439 47.113-7.439c33.392 0 61.826 9.588 85.3 28.762 1.653 5.455 2.479 10.911 2.479 16.365 0 8.266-1.984 20.167-6.117 36.038s-6.117 27.939-6.117 36.038c0 12.564 3.637 30.748 11.075 54.551s11.075 41.989 11.075 54.552c0 16.365-14.548 24.631-43.477 24.631-30.086 0-54.388-6.778-72.901-20.498-9.258-7.109-22.482-22.317-39.84-45.46-17.192-23.309-34.053-40.337-50.42-51.247-22.482 1.157-36.699 7.934-42.651 20.498 3.306 7.109 13.719 19.671 31.244 37.691 12.564 14.712 33.392 35.872 62.323 63.147 14.217 11.406 39.014 23.97 74.554 37.36s61.99 20.166 79.515 20.166c30.583 0 58.519-6.282 83.648-18.845 31.244-15.374 46.783-36.864 46.783-64.803 0-15.375-19.011-38.682-57.032-70.092s-57.032-52.072-57.032-61.826c0-10.414 9.588-22.151 28.763-35.211s33.89-19.672 44.303-19.672c13.060 0 32.897 3.968 59.51 11.903 26.45 7.934 46.618 11.903 60.339 11.903 15.704-0.495 25.294-7.274 28.434-20.994z" />
<glyph unicode="&#xe631;" d="M509.511 487.143c0-50.554-9.309-101.107-27.798-151.661l0.776-14.222c-11.636-21.075-25.859-47.321-42.796-78.869-6.077-10.99-18.747-24.695-38.271-41.244-12.929-15.515-26.246-31.16-39.822-46.933s-31.806-23.143-54.82-22.109c-38.659 1.552-54.82 2.327-48.873 2.327-4.913 0-13.705-1.681-26.246-5.301-15.515 4.008-25.859 12.8-30.772 26.634s-10.214 35.685-15.774 66.198c-5.56 30.255-8.145 52.364-8.145 66.457 0 39.046 11.248 83.135 33.875 132.137 25.988 57.018 55.855 86.497 89.341 88.566 4.008-13.446 6.077-21.851 6.077-24.695 0-32.582-8.016-59.863-24.048-81.972-14.998-16.549-29.996-33.099-44.994-49.648-15.903-20.558-23.919-45.64-23.919-75.119 0-42.537 6.077-71.887 18.101-87.79 9.438-12.541 29.349-18.747 59.345-18.747 14.481 0 31.806 10.99 51.717 33.099 18.489 20.040 32.711 38.529 42.796 55.596 12.541 21.463 22.756 52.493 30.772 93.091 6.982 35.556 10.473 68.784 10.473 99.814 0 9.568-1.552 19.782-4.525 30.772-4.525 14.481-10.214 21.851-17.325 21.851-6.982 0-17.455-8.145-31.547-24.695-16.032-19.006-27.539-29.996-34.521-33.099-8.921 4.913-13.576 15.257-13.576 30.772 0 3.491 0.517 9.568 1.034 18.101 0.776 8.533 0.905 14.998 0.259 19.523 6.077 18.101 17.455 32.97 34.521 44.606s35.297 17.584 54.82 17.584c22.626 0 43.701-9.568 63.871-28.574 19.911-19.006 29.996-39.952 29.996-62.448zM384.097 663.628c0-8.016-1.552-16.549-4.525-25.471-8.533-4.525-20.040-12.8-34.521-24.695-4.008-6.465-8.016-13.188-12.024-19.911-4.008-6.853-9.438-11.895-16.549-15.515-20.040 35.556-29.996 68.655-29.996 99.038 0 18.101 4.267 35.426 13.188 52.234 8.792 16.679 20.428 29.349 34.909 37.883 12.541-6.982 23.919-22.626 34.521-46.545 9.956-21.98 14.998-40.986 14.998-57.018zM368.323 317.382c-7.628-29.479-16.808-44.347-27.798-44.347-14.998 0-24.566 8.792-28.574 26.246-2.974 14.481-5.689 29.091-8.145 43.572 0.905 6.077 3.491 14.222 7.628 24.695 2.457 1.552 4.267 2.327 5.301 2.327 20.687 0.259 38.012-17.325 51.588-52.493zM611.653 668.929c0-24.566-5.301-49.002-15.774-73.568-10.99-26.634-25.859-46.545-44.347-60.121-16.549 6.465-31.16 17.713-43.83 33.875-12.8 16.032-19.135 32.323-19.135 48.873 0 4.525 2.327 14.093 6.853 28.574 18.489 59.475 46.028 89.341 82.489 89.341 4.913 0 10.214-0.517 15.774-1.552 11.895-30.125 17.972-51.846 17.972-65.422zM598.077 279.24c0-8.533-2.974-16.032-8.921-22.626-6.077-6.465-12.929-9.697-21.075-9.697-17.455 0-29.479 10.473-36.073 31.547-4.008 16.937-8.016 34.263-12.024 51.717 1.034 2.457 2.457 6.206 4.525 11.248 2.069 2.069 4.525 3.491 7.628 4.525 40.081-10.99 61.802-17.713 65.422-20.299l0.776-5.301c0-1.552-0.259-3.749-0.776-6.853-0.517-2.974-0.776-5.301-0.776-6.853 0-2.974 0.259-7.628 0.776-13.964 0.388-5.818 0.517-10.473 0.517-13.446zM880.453 424.048c0-12.541-2.069-31.16-6.077-56.242-4.525-26.634-8.792-44.347-12.8-53.269-2.974-4.525-6.982-11.248-12.024-20.299-14.481-31.030-21.851-50.941-21.851-60.121-16.937-43.572-41.244-76.8-72.792-99.814-8.921-5.56-21.333-14.481-36.719-27.022-7.628-8.016-14.869-16.032-21.851-23.919-8.533-8.533-17.325-14.739-26.246-18.747-16.549 2.974-30.772 12.929-42.796 29.996-2.069 2.974-10.214 21.075-24.695 54.044l-1.552 2.974c0.517 8.016 4.784 12.024 12.8 12.024 2.457 0 5.689-1.293 9.697-3.749s6.982-3.491 8.921-2.974h3.103c52.493 47.58 96.84 98.133 132.913 151.661 40.469 61.026 60.897 108.735 60.897 143.386 0 9.438-3.491 17.972-10.473 25.212s-15.257 10.861-24.695 10.861c-6.465 0-31.806-8.663-75.895-25.988s-70.335-28.574-78.869-33.875c-8.533-5.301-15.257-11.895-20.299-19.911-16.549 4.008-31.16 17.455-44.347 40.469-3.491 6.465-12.024 25.988-25.471 58.57 0 2.457 0.517 4.913 1.552 7.628l2.327 2.327 3.749 0.776 38.271-3.749c12.929 4.525 32.582 10.473 58.57 18.101 12.024 2.974 25.988 7.758 42.020 14.222 12.024 4.913 35.038 7.628 69.042 7.628 26.634 0 49.261-6.853 68.267-20.299s31.677-32.453 37.883-56.76c6.335-24.436 9.438-42.020 9.438-53.139z" />
<glyph unicode="&#xe632;" d="M418.747 393.406c0-12.024-1.552-28.186-4.655-48.485-3.749-23.919-5.689-40.21-6.335-48.485-2.586-8.792-5.689-21.98-9.438-39.046-2.586-12.929-4.655-32.194-6.335-57.018-3.103-42.149-16.42-81.972-39.822-118.82-8.404-12.929-17.713-19.653-28.186-19.653-9.956 0-21.98 5.43-36.073 16.42-17.713 13.576-28.186 21.204-31.418 22.756v7.111c43.313 23.919 71.24 88.824 83.782 194.715 0.517 5.301 3.362 23.661 8.663 55.467 3.749 22.368 5.43 41.374 5.43 57.018 0 42.149-6.465 69.042-19.653 80.549 0 21.333-6.077 32.194-17.972 32.194-8.792 0-20.687-5.689-35.556-17.196s-25.212-17.196-30.901-17.196c-11.378 0-24.824 5.689-40.339 17.196s-22.626 22.497-22.109 33.487l0.776 4.655 60.251 62.578c-3.103 15.127-14.869 29.996-35.297 44.477-17.196 12.024-35.297 20.816-53.915 26.634v5.43c34.909-2.198 73.309-13.705 114.941-35.297 7.24 4.655 13.317 10.343 17.972 17.196 8.792 12.024 13.705 18.747 14.869 20.428 7.24 6.335 17.196 16.679 29.737 31.16 2.069 4.655 5.43 12.154 10.214 22.756 2.586 4.655 7.111 7.111 13.317 7.111 31.16 0 46.933-27.022 46.933-81.325 0-20.428-4.655-37.107-14.093-50.036-3.103-4.137-11.766-12.154-25.859-24.307-9.438-7.887-14.093-15.903-14.093-24.307 0-8.792 3.879-17.972 11.766-27.41 6.206-8.404 12.8-16.42 19.653-24.307 6.206-10.473 13.446-30.901 21.463-61.414 8.275-30.255 12.283-51.976 12.283-65.034zM302.255 338.586c0-19.265-4.913-38.271-14.869-57.018-12.024-21.333-27.022-32.194-45.253-32.194-5.301 0-15.644 3.879-31.16 11.766-19.265 9.956-29.996 15.257-32.194 16.42 0 6.206 1.81 12.541 5.43 18.747 3.749 6.206 21.204 28.186 52.364 65.681 4.655 8.404 12.8 19.653 24.307 33.745 5.301 4.655 10.99 7.111 17.196 7.111 16.162-12.671 24.178-34.004 24.178-64.259zM868.428 642.166c-8.792-17.713-15.644-40.598-20.428-68.784-7.24-44.347-11.248-68.008-11.766-71.24-4.655-18.747-15.903-42.925-33.745-72.792-18.747-31.806-49.261-63.354-91.539-94.642-4.655-3.103-14.869-7.887-30.384-14.093-12.929-5.689-21.204-10.602-24.307-14.869s-6.077-11.766-8.663-22.756c-3.749-12.541-6.465-20.816-8.663-25.083-10.99 2.069-16.937 10.99-17.972 26.634-1.552 18.23-6.077 29.996-13.317 35.297-1.034 1.034-15.644 7.111-43.701 17.972-9.826 3.103-24.695 8.016-44.606 14.869-3.103 1.034-10.99 6.077-23.531 14.869-23.919 16.679-36.073 42.925-36.073 78.998v72.016c0 37.495 7.111 66.457 21.463 86.885s38.917 38.012 73.826 53.139c15.127 6.335 26.117 11.378 32.711 15.644 11.378 6.335 21.204 12.929 28.962 20.428 7.887 7.24 13.964 21.333 18.36 42.149s10.085 33.358 16.808 37.495c11.378-3.103 18.489-13.317 21.204-30.384 3.103-20.428 8.404-33.745 15.644-39.822 66.327-2.198 116.234-12.024 150.238-29.608 12.671-6.594 22.238-17.196 29.479-32.323zM893.511 184.469c-10.99-25.083-25.341-37.495-42.925-37.495-7.24 0-15.515 1.81-24.307 5.43-8.792 8.792-19.006 33.358-30.384 73.568-1.552 4.655-4.525 7.111-8.663 7.111s-10.473-3.103-18.747-9.438c-10.99-12.024-27.669-29.22-50.036-51.588-16.679-15.127-40.339-28.962-71.24-41.374-30.772-12.541-57.277-18.747-79.774-18.747-52.752 0-78.998 27.41-78.998 82.101 0 2.586-0.517 6.465-1.293 11.766s-1.293 9.18-1.293 11.766c0 9.956 4.913 14.869 14.869 14.869-1.034 0 7.111-4.008 24.307-12.024s34.133-12.024 50.812-12.024c20.816 0 53.527 3.879 97.875 11.766 48.485 8.404 79.644 16.42 93.091 24.307 6.335 3.749 12.541 9.18 18.877 16.42-3.103 9.956-4.137 17.196-3.103 21.98l-0.776 7.887 3.103 2.327c2.198 5.301 6.077 6.853 11.766 4.655 3.749 0.517 7.24 0.776 10.99 0.776 25.083 0 46.158-12.929 63.354-39.046 14.998-24.048 22.497-48.873 22.497-74.99zM625.228 464.517c0 7.24-0.259 17.713-0.776 31.16-0.517 13.576-0.776 23.661-0.776 30.384 0 3.103-0.517 7.887-1.293 14.481-0.776 6.465-1.293 11.636-1.293 15.257 0 2.069 0.259 5.43 0.776 10.214 0.517 4.655 0.776 8.404 0.776 10.99 0 9.826-3.749 17.455-10.99 22.756-31.806-3.749-58.053-13.317-78.998-28.962-25.341-18.36-38.141-42.408-38.141-72.016 0-21.98 1.552-34.651 4.655-38.271 6.853-9.826 21.592-18.23 44.477-25.083 20.428-6.853 37.883-10.214 52.364-10.214 4.655 0 9.826 0.259 15.644 0.776 9.309 8.145 13.576 20.816 13.576 38.529zM809.083 574.933c0 16.291-6.853 29.737-20.428 40.598-8.404 6.335-23.014 13.576-43.701 21.98-20.816 8.404-34.651 15.127-41.374 20.428-10.473-4.137-17.196-10.473-19.911-18.747-2.974-8.404-6.206-30.772-9.697-67.232-3.749-34.521-5.43-57.665-5.43-69.56 0-31.806 1.81-52.752 5.43-62.578 2.198-1.552 4.137-2.586 6.335-3.103 28.186 3.749 56.76 20.558 85.592 50.812 28.703 29.996 43.184 59.216 43.184 87.402z" />
<glyph unicode="&#xe633;" d="M334.531 86.379c0-3.883-3.056-9.032-9.186-15.437-6.137-6.41-11.143-9.602-15.025-9.602-15.025 0-26.185 17.529-33.404 52.609-9.484 45.093-15.323 69.308-17.553 72.66-0.547-0.571-11.97-19.223-34.229-55.96-42.31 0-63.472 25.891-63.472 77.672 0 38.41 17.529 74.042 52.609 106.891 33.404 31.174 69.584 48.979 108.571 53.457 3.883-1.124 6.683-3.355 8.361-6.687-11.143-7.806-23.112-29.791-35.908-65.973-16.726-46.221-26.185-71.559-28.416-75.995l4.18-9.192c21.157-3.351 37.584-20.050 49.274-50.102 9.465-23.958 14.197-48.725 14.197-74.34zM818.902 526.506c-8.336-25.632-48.999-53.75-121.914-84.354-55.129-22.832-105.788-39.258-152.006-49.274-27.844-6.133-59.018-9.19-93.522-9.19-33.404 0-65.981 1.101-97.727 3.333-44.541 2.227-74.317 5.028-89.359 8.361-30.619 7.235-55.391 22.262-74.317 45.097-10.589 11.692-15.875 23.938-15.875 36.753l4.18 3.332c12.248-1.124 30.9-2.803 55.962-5.009 125.818-20.052 214.627-30.071 266.41-30.071 61.224 0 125.268 13.074 192.074 39.261 20.585 8.338 41.186 16.699 61.795 25.039 26.718 10.039 48.155 15.598 64.303 16.721zM791.355 736.959l-9.186-23.389c-3.906-11.694-8.086-23.385-12.539-35.078-4.46-11.692-13.647-17.528-27.547-17.528-3.906 0-9.895 1.379-17.965 4.159-8.064 2.779-14.059 4.18-17.941 4.18-6.683 0-11.848-3.627-15.457-10.865-3.633-7.235-6.822-14.195-9.604-20.861-6.683-10.037-15.871-24.787-27.566-44.266-16.148-30.073-26.44-48.174-30.9-54.285-8.906-13.919-22.26-30.619-40.086-50.104l-2.504 1.657-1.676 3.353-2.504 0.827c18.377 53.457 27.566 92.419 27.566 116.929 0 21.137-1.398 37.010-4.18 47.6-6.131 6.111-10.312 9.19-12.523 9.19-60.137 0-116.653-9.19-169.535-27.567-6.131-2.227-12.523-4.453-19.205-6.683-6.683-2.227-11.418-5.717-14.199-10.432-2.795-4.73-4.18-11.003-4.18-18.788 0-0.574 1.105-20.605 3.355-60.142 0.535-5.559-2.248-12.935-8.361-22.121-6.129-9.19-11.696-13.782-16.701-13.782-28.391 0-43.988 21.983-46.77 65.975-1.659 1.676-3.627 3.61-5.839 5.857-1.124 0.531-2.803 1.101-5.006 1.657-5.576 0-12.266-3.056-20.056-9.19-7.806-6.129-13.919-9.463-18.372-10.016-24.491 5.561-43.144 22.832-55.945 51.78 0 17.805 7.516 32.851 22.539 45.095 2.777 1.672 17.826 10.291 45.093 25.889 20.056 11.139 37.031 23.662 50.95 37.583 1.676 10.57 3.334 20.881 5.013 30.898 2.777 15.025 6.957 23.385 12.521 25.062 3.348-2.231 7.941-8.636 13.78-19.205 5.857-10.589 12.661-17.274 20.468-20.056 69.031 27.273 143.348 41.468 222.968 42.592 3.353 2.779 8.361 12.799 15.049 30.073 5.006 14.472 11.392 21.707 19.205 21.707 5.561 0 12.795-6.133 21.709-18.377 5.559-8.338 11.396-16.422 17.529-24.211 2.781-3.333 19.065-9.19 48.86-17.531 29.775-8.361 53.046-20.881 69.741-37.581zM519.089 148.176c0-12.797-4.155-28.947-12.523-48.428-9.461-22.26-19.498-33.401-30.069-33.401-16.701 0-30.346 13.348-40.912 40.088-8.913 21.155-13.372 41.466-13.372 60.948 0 70.156 6.41 117.203 19.21 141.142 25.607-1.124 45.647-22.538 60.135-64.301 11.698-32.299 17.53-64.303 17.53-96.049zM659.406 179.922c0-10.015-3.627-20.191-10.865-30.486-7.235-10.314-15.596-15.459-25.043-15.459-16.719 0-30.067 13.37-40.086 40.088-6.131 19.481-12.539 39.261-19.223 59.291l1.676 5.031 3.349 3.333 4.16 1.673c2.231-0.569 4.18-1.4 5.859-2.504 53.432-5.026 80.172-25.355 80.172-60.967zM862.343 306.866c0-9.484-4.18-20.466-12.539-32.988-8.342-12.539-16.976-20.193-25.889-22.972-21.713 3.886-50.377 25.891-86.013 65.977-35.628 40.088-59.588 62.073-71.814 65.975v4.162l0.827 5.857c15.577 5.561 32.278 8.338 50.106 8.338 32.851 0 63.753-7.512 92.695-22.538 35.080-17.824 52.627-41.762 52.627-71.812zM785.498 184.101c0-8.361-3.902-16.285-11.69-23.82-7.808-7.514-15.875-11.257-24.211-11.257-14.497 0-27.844 12.225-40.088 36.733-7.813 18.377-15.602 36.753-23.383 55.131 0.547 1.657 1.949 3.039 4.18 4.162h23.383c17.803 0 34.229-5.839 49.274-17.531 15.025-11.69 22.534-26.183 22.534-43.417z" />
<glyph unicode="&#xe634;" d="M471.079 284.251c-5.818-9.826-14.481-24.695-25.988-44.347l3.749-11.119c-0.905-4.008-5.43-9.568-13.317-16.679s-11.895-14.739-11.895-22.626l-1.552-1.552c0.517-2.457 2.069-5.43 4.525-8.792-28.186-31.030-72.275-46.675-132.655-46.675-27.669 0-49.778 4.137-66.327 12.541s-29.996 22.368-40.339 42.149c-9.826 18.23-14.869 36.719-14.869 55.467l2.198 3.749c2.069 0.517 4.008 0.776 5.818 0.776 19.782-11.895 47.58-19.911 83.653-24.436 6.982 1.552 21.851 4.008 44.347 7.37 0 5.818-3.232 11.248-10.085 16.291-6.594 4.913-10.085 9.826-10.085 14.869 0 1.552 2.327 7.24 6.982 17.455 4.655 10.085 7.24 16.679 7.758 19.653 2.457 11.248 3.749 28.962 3.749 52.493 0 9.826-0.905 24.436-2.586 43.701s-2.586 33.358-2.586 42.149c0 6.982 3.362 10.343 10.343 10.343 2.974 0 7.24-2.844 12.929-8.145s9.309-9.568 10.602-12.541c4.525-10.343 8.921-28.444 13.317-54.044 4.525-25.6 6.594-45.382 6.594-59.216 0-17.325-9.18-43.83-27.41-79.903l3.749-2.974c17.713 2.457 42.925 11.895 75.636 28.186 33.358 16.291 54.303 24.954 63.741 25.859zM417.034 578.263c-2.457-5.818-10.602-15.903-24.436-29.996-13.705-14.093-23.661-22.368-29.608-24.695-7.37-2.974-18.489-4.137-33.358-3.749-25.6 0.905-54.562 1.552-86.756 1.552-6.982 0-12.541 2.974-16.937 8.792-4.525 5.818-6.594 12.541-6.594 19.911 0 56.242 49.131 95.935 147.265 119.208 16.808-2.457 28.574-14.869 35.556-37.107 4.913-17.584 9.826-35.685 14.869-53.915zM865.034 501.98c0-15.257-3.232-55.855-9.568-121.535-4.008-45.899-7.887-91.798-11.895-137.697-8.792-54.82-26.764-95.547-53.269-122.182-13.705-13.317-26.376-19.911-37.754-19.911-7.887 0-14.998 2.844-21.204 8.145s-9.309 12.024-9.309 19.911c0-2.974 0.905 8.404 2.974 34.004 0.517 6.982-4.784 16.808-15.903 29.737-11.119 12.8-16.937 21.851-17.455 26.764 4.008 0 10.085-1.034 18.101-3.362 8.145-2.198 14.352-3.362 18.877-3.362 1.552 0 2.974 0.259 4.525 0.776 17.713 17.713 34.004 49.907 48.873 96.323 14.352 43.442 21.463 79.257 21.463 107.442 0 38.529-2.069 67.103-5.818 85.98-7.37 31.030-21.851 55.079-42.925 71.887-18.747 13.705-36.073 20.687-51.717 20.687-8.404 0-14.869-4.008-19.265-11.895-5.43-9.438-17.325-46.416-35.556-111.063-4.525-15.257-10.602-48.097-18.489-98.392-4.913-22.756-10.602-56.76-16.937-102.141-4.008-35.556-11.636-65.422-23.014-89.6-8.792-19.265-24.436-33.487-46.675-42.925-24.695-10.861-39.305-19.006-43.701-24.436l-5.818 3.749c20.687 40.469 43.442 101.236 68.137 182.174 26.117 86.368 39.305 148.040 39.305 185.147l-2.198 4.525-4.525 1.552c-9.826-0.517-23.014-9.18-39.305-25.988-13.317-13.317-23.273-25.859-29.996-37.366-6.594-11.636-13.317-23.014-19.653-34.521-7.887-13.317-15.644-23.661-23.014-31.030-10.343-4.525-23.143-6.594-38.529-6.594-16.808 0-28.444 1.552-34.78 4.525-9.438 4.525-14.093 13.705-14.093 28.186 0 34.651 17.713 69.818 53.269 105.891 20.687 20.687 53.269 46.675 97.616 77.705 15.774 6.465 37.236 19.006 64.388 37.754 11.378 11.248 19.006 30.642 23.014 57.794 3.362 24.695 8.404 38.012 14.869 40.081 10.861-1.552 18.747-9.826 23.661-25.212 7.887-22.756 12.024-34.263 12.541-34.78 5.818-8.921 14.998-13.705 27.41-14.869-2.069 0 8.792 0 32.582 0 13.705 0 30.384-4.655 49.907-13.705 19.523-9.18 33.228-17.972 41.115-26.246 8.404-9.826 15.515-24.824 21.204-44.865 5.56-20.687 8.533-36.202 8.533-47.063z" />
<glyph unicode="&#xe635;" d="M501.222 633.396l-3.255-8.925c-18.926 1.626-33.258 2.432-42.988 2.432-12.987 0-25.707-2.432-38.141-7.297-8.658-6.495-21.646-14.886-38.946-25.154-24.884-14.061-49.5-28.123-73.827-42.183-38.408-21.093-61.398-31.646-68.963-31.646-14.085 0-30.576 7.834-49.502 23.525-18.945 15.686-28.391 30.285-28.391 43.811 0 15.15 6.341 27.45 19.062 36.913 12.698 9.464 33.121 19.079 61.262 28.812 26.49 9.732 48.676 15.958 66.531 18.66 20.535 2.701 40.017 4.061 58.408 4.061 74.096 0.002 120.341-14.348 138.748-43.006zM476.874 159.582c0-16.764-8.925-30.557-26.78-41.379-5.959-3.795-21.628-10.268-47.047-19.481-33.009-11.897-58.696-17.854-77.088-17.854-28.678 0-57.066 6.495-85.185 19.481-32.989 14.596-53.005 34.080-60.037 58.408 0 1.071 0 4.061 0 8.926 0 27.587 16.76 54.637 50.307 81.148 28.655 18.926 57.314 37.854 85.991 56.779 2.703-1.095 5.691-1.612 8.927-1.612 5.959 0 14.886 1.074 26.781 3.239 11.893 2.144 20.822 3.239 26.78 3.239 3.237 0 6.474-1.095 9.732-3.239 5.404-3.239 12.299-9.615 20.691-19.058 8.369-9.483 15.535-15.824 21.491-19.082 8.123-3.795 19.194-10.535 33.273-20.267 2.146-3.258 4.311-6.495 6.495-9.75l-1.627-17.029c0-7.032 1.208-17.587 3.641-31.648 2.449-14.079 3.656-24.347 3.656-30.821zM408.72 188.772c0 6.497-3.239 15.959-9.733 28.413-8.103 14.596-18.525 23.523-31.225 26.761-12.719 3.258-25.841 6.226-39.365 8.926-10.268-2.167-18.391-5.961-24.329-11.36-5.959-5.402-11.917-10.826-17.854-16.227-14.596-9.732-29.481-19.194-44.613-28.391-16.782-10.824-27.337-24.079-31.648-39.749 5.937-18.926 32.164-28.41 78.697-28.41h37.313c17.319 0 34.904 5.688 52.737 17.050 20.023 12.432 30.024 26.76 30.024 42.985zM395.747 510.068c-3.793-4.865-8.658-14.196-14.615-27.991-5.961-13.794-11.629-23.927-17.033-30.419-24.348-2.72-35.44-4.059-33.275-4.059-27.048 0-47.604 7.565-61.644 22.717 5.383 15.69 15.535 28.525 30.419 38.542 14.865 10.001 30.688 14.999 47.452 14.999 12.985 0 28.678-2.164 47.068-6.473l1.627-7.314zM411.973 407.024c-3.793-4.865-9.215-8.909-16.226-12.162-9.213-4.865-15.15-8.106-17.854-9.735-5.421-4.326-12.988-13.658-22.72-27.987-9.731-14.348-20.017-23.944-30.823-28.812-13.543 2.699-25.842 9.327-36.934 19.883-11.095 10.535-16.628 22.317-16.628 35.288 8.123 15.133 24.348 24.616 48.676 28.408 9.75 1.612 29.481 2.435 59.231 2.435 12.991 0 24.063-2.435 33.277-7.316zM442.795 748.601c0-12.434-5.672-23.257-17.033-32.452s-23.274-13.793-35.705-13.793l-17.033 1.627c-8.66 9.192-16.783 23.522-24.348 43.006-7.587 19.46-14.329 32.987-20.286 40.555 0 7.567 2.967 14.061 8.927 19.481 5.959 5.402 12.698 8.103 20.286 8.103 19.999 0 38.676-5.959 55.972-17.836 19.486-13.523 29.218-29.769 29.218-48.694zM896.344 594.45c-3.239-3.239-5.424-18.123-6.496-44.615-1.092-26.513-4.326-43.006-9.732-49.5-4.326-1.627-9.46-2.433-15.421-2.433-9.196 0-23.808 2.703-43.808 8.123-8.66 2.146-24.887 3.239-48.676 3.239-24.35 0-41.935-2.434-52.737-7.3-16.782-7.585-25.158-21.914-25.158-43.006 0-9.196 1.878-23.257 5.673-42.181 3.795-18.947 5.691-31.376 5.691-37.338 0-154.151-4.869-240.415-14.619-258.801-3.769-8.123-10.824-14.888-21.092-20.289-5.402 0-10.938 2.836-16.628 8.505-5.67 5.691-8.524 11.249-8.524 16.65 0 3.236 0.536 8.256 1.627 14.998 1.070 6.784 1.629 11.762 1.629 15.020 0 3.235-0.559 7.968-1.629 14.192-1.092 6.206-1.627 10.671-1.627 13.394 0.536 18.367 0 45.705-1.612 81.95-1.092 2.144-1.627 4.306-1.627 6.472 0 1.092 0.803 4.061 2.435 8.926 1.627 4.865 2.432 7.565 2.432 8.123l-5.67 39.749c0 1.627 1.070 18.925 3.239 51.931 2.699 35.155 4.061 56.512 4.061 64.1 0 11.895-0.559 22.986-1.629 33.256l-13.794 11.36c-20.555-1.61-50.036-6.226-88.445-13.794-8.103-3.237-20.267-7.297-36.492-12.162-8.66-2.72-15.422-5.421-20.287-8.123l-8.123-0.803c-20.017-1.091-32.182 6.495-36.512 22.718 9.196 29.731 37.336 56.799 84.383 81.128 35.155 18.39 73.563 32.45 115.206 42.2 2.703 15.135 4.061 30.285 4.061 45.421 0 6.495-0.4 15.958-1.226 28.41-0.803 12.434-1.205 21.897-1.205 28.393 0 21.628 0.267 34.883 0.803 39.768 2.164 16.743 7.832 28.389 17.048 34.883 14.6-2.72 26.225-13.525 34.883-32.45 6.496-15.151 9.732-31.648 9.732-49.5 0-7.587-0.688-19.062-2.028-34.483-1.344-15.421-2.033-26.914-2.033-34.481 0-3.795 0.271-7.031 0.827-9.733 2.699-1.627 5.67-2.432 8.923-2.432 7.012 0 18.926 1.342 35.692 4.042 16.764 2.703 29.485 4.059 38.145 4.059 55.165 0 90.585-6.494 106.276-19.461l4.061-8.125z" />
<glyph unicode="&#xe636;" d="M854.529 567.143c0-15.515-5.43-29.091-15.903-40.598-10.602-11.766-23.661-17.584-39.046-17.584-16.937 0-33.487 8.663-49.39 25.988s-25.083 26.246-27.152 26.764c0.517 4.267 7.758 13.317 21.463 27.152 1.034 6.982 1.552 13.317 1.552 19.135 0 73.438-19.911 110.158-59.863 110.158-56.889 0-94.125-2.974-111.709-8.792-12.8-4.267-29.22-11.119-49.39-20.687-27.152-13.317-43.442-21.075-48.743-23.143-16.549-5.301-40.986-12.8-73.438-22.368-23.919-8.016-44.606-16.291-62.319-24.695-8.016-5.301-19.911-12.541-35.814-21.463-31.935-15.903-53.786-31.418-65.552-46.416v-4.784c-0.517-11.119 2.844-26.893 10.085-47.192 7.111-20.299 10.861-35.685 10.861-46.416 0-4.784-2.844-12.929-8.404-24.695s-10.214-19.523-13.964-23.143h-4.008c-34.133-1.552-58.828 37.754-74.214 118.174-5.43 25.988-8.016 41.115-8.016 45.382 0 10.602 2.974 19.911 8.792 27.927 11.766 15.515 41.762 35.426 90.246 59.863 43.055 21.851 77.446 36.461 102.917 43.83 19.135 3.749 47.968 9.309 86.238 16.679 5.818 1.552 14.739 3.749 26.376 6.335-0.646 5.301-3.103 13.705-7.628 25.212-4.525 11.378-6.853 19.265-6.853 23.531 0 5.301 1.552 11.895 4.267 19.653 2.974 7.758 6.853 11.636 11.636 11.636 27.669 0 48.356-5.818 62.319-17.584 13.964-16.549 27.669-32.711 41.632-48.743 28.703 5.301 69.43 8.016 122.053 8.016 48.356 0 87.79-17.713 118.174-53.527 28.444-33.358 42.796-74.602 42.796-123.604zM667.83 562.36v-1.552c-3.232-6.982-7.758-11.636-13.576-13.964s-11.766-4.913-17.584-7.628h-3.232l-3.232 0.776c0 1.034 0.259 2.586 0.776 4.784 0 1.552 0 2.974 0 4.008 0 3.749-0.776 6.982-2.327 9.568-13.317 7.37-28.315 11.119-44.606 11.119-20.299 0-49.002-6.206-86.238-18.36s-64.129-24.307-80.679-35.814c-13.317-11.119-26.893-22.368-40.598-33.487-19.653-15.903-33.228-23.919-40.598-23.919-9.18 0-20.040 3.879-33.099 11.636s-21.333 15.515-24.436 23.402c10.602 22.368 34.263 44.218 71.111 65.552 28.186 16.549 58.57 29.867 91.022 39.822 36.719 11.766 76.283 17.584 118.949 17.584 32.453 0 55.596-2.198 69.43-6.335 26.505-7.499 39.434-23.273 38.917-47.192zM451.523 429.834c-10.602-10.085-25.471-25.341-44.606-45.382-13.964-15.903-27.41-31.935-40.598-47.968-16.549-15.903-34.909-23.661-55.079-23.143h-4.008c-4.784 4.784-7.111 10.602-7.111 17.584 0 21.333 15.903 49.39 47.968 84.687 28.703 30.901 54.562 52.364 77.446 64.646 7.37-1.034 13.576-8.016 18.36-20.687 2.198-9.826 4.784-19.653 7.628-29.737zM468.202 342.82c-4.267-4.784-9.568-12.8-15.903-23.919 0-0.517-0.646-7.24-2.069-20.428-1.422-12.929-6.853-24.048-16.42-33.099-9.568-9.18-20.687-13.576-33.487-13.576-15.903 0-23.919 8.016-23.919 23.919 0 17.584 8.145 35.556 24.695 53.915s33.487 27.539 51.2 27.539c2.586 0 5.56-0.259 8.792-0.776 0.517-1.034 2.586-4.008 6.335-8.792l0.776-4.784zM519.402 219.087c0-12.8-6.206-23.919-18.36-33.487s-25.083-14.352-38.271-14.352c-5.818 0-12.929 4.267-21.463 13.188s-12.8 16.42-12.8 22.756c0 3.749 23.919 27.669 71.887 71.887 12.541-10.214 19.006-30.125 19.006-59.992zM782.772 188.832c0-0.517 0-11.378 0-32.711 0-14.869-3.749-26.893-11.119-35.814h-4.008c-19.653-0.517-40.986 11.119-63.871 35.038-16.937 20.299-33.875 40.21-50.166 59.863-15.515-27.669-30.901-55.079-46.416-82.23-17.584-26.634-42.667-46.028-75.119-58.311-22.885-8.533-44.477-12.8-64.646-12.8-24.436 0-36.719 8.792-36.719 26.246 0 6.982 3.103 16.937 9.18 30.255 6.206 13.317 9.18 23.273 9.18 30.255 6.982-3.232 17.325-7.758 31.030-13.576 23.273 3.749 46.416 18.489 68.655 44.347 22.368 25.859 33.487 50.424 33.487 73.826 0 22.885-10.085 46.545-30.255 71.111-18.747 19.653-36.978 39.046-55.208 58.311 2.586 1.552 7.24 2.327 13.576 2.327 20.299 0 43.442-9.18 69.43-27.152 21.851-14.869 40.986-32.194 57.535-51.976l16.679-1.552c3.749-4.267 27.152-23.531 70.335-57.535 37.366-29.091 56.889-48.356 58.44-57.923zM771.523 422.594c-4.784-20.299-9.568-40.469-14.352-60.768-8.016-28.315-21.851-42.408-41.632-42.408-12.8 0-28.444 6.206-47.192 18.747s-33.099 18.489-43.055 17.972v7.111c34.651 35.685 76.671 61.673 126.061 78.222 13.576-0.776 20.17-7.111 20.17-18.877z" />
</font>
</defs>
</svg>
